<svg width="32" height="40" viewBox="0 0 32 40" fill="none" xmlns="http://www.w3.org/2000/svg">
<g clip-path="url(#clip0_78_75)">
<path d="M16 28L24.364 31.364L16.7071 39.0208C16.3166 39.4113 15.6834 39.4113 15.2929 39.0208L7.63604 31.364L16 28Z" fill="white"/>
<path d="M16 28L24.364 31.364L16.7071 39.0208C16.3166 39.4113 15.6834 39.4113 15.2929 39.0208L7.63604 31.364L16 28Z" fill="#FE9D12" fill-opacity="0.25"/>
<path d="M5.5 2.5H24.5L29.5 7.5L28 13.5L29 22L25 26.5L16.75 29.75L5.5 30L7 28L4.5 25.5L3 22.5V12.5L5 13L5.5 2.5Z" fill="white"/>
<path d="M0.990224 25.5244C0.852053 24.4262 1.42393 23.4249 2.3585 22.5068C2.54848 22.3198 2.70585 22.1107 3.11268 22.1924C3.51952 22.2755 3.7997 22.4555 3.85343 22.7574C3.90141 23.0302 3.85727 23.3114 3.89565 23.5856C3.93979 23.9027 3.97241 24.2309 4.1125 24.53C4.51166 25.3831 5.55562 25.7086 6.71472 25.3748C7.9122 25.03 7.89109 25.0314 7.92947 25.9551C7.95634 26.5963 7.99664 27.2416 8.14057 27.8717C8.20774 28.1639 8.46105 28.4797 8.76042 28.6874C9.28048 29.0488 9.96941 29.0308 10.5298 28.7497C11.1247 28.4506 11.6927 28.0933 11.923 27.5546C12.1187 27.0934 12.2972 26.6295 12.5006 26.1697C12.6177 25.9066 12.7674 25.8872 13.0245 26.0742C13.0917 26.1226 13.1531 26.1766 13.2107 26.232C14.1568 27.1087 15.8321 27.1225 16.7667 26.2126C17.2752 25.7196 17.6417 25.1505 18.0697 24.6145C18.181 24.476 18.2827 24.3348 18.3902 24.1949C18.63 23.8805 18.6569 23.8708 18.891 24.1894C19.0868 24.4566 19.3631 24.6021 19.7584 24.681C20.219 24.7724 20.3879 25.0134 20.4128 25.3568C20.4435 25.7889 20.4858 26.2293 20.6374 26.6447C20.8504 27.2333 21.6794 27.531 22.4854 26.966C23.0477 26.5727 23.4468 26.1185 23.6387 25.5645C23.7462 25.2543 23.8901 24.9483 24.0475 24.6491C24.1492 24.4566 24.3296 24.4109 24.6539 24.4594C25.7689 24.6284 26.1738 24.4663 26.5921 23.7282C26.8071 23.3474 27.0489 22.961 26.7821 22.5317C26.6574 22.3309 26.7725 22.1716 27.0258 22.0678C27.5229 21.8628 28.018 21.6537 28.5246 21.4612C28.9871 21.2853 29.108 21.2784 29.346 21.6551C29.7375 22.2769 30.0886 22.9222 30.3228 23.5828C30.5089 24.109 30.507 24.6727 30.5665 25.2197C30.7219 26.678 29.9351 27.9105 28.801 29.0641C28.3327 29.5405 25.7267 32.1523 16.9643 31.9903C4.2334 32.0138 2.59838 29.5405 1.31838 27.3496C0.980629 26.7735 0.986386 26.1863 0.994062 25.5216L0.990224 25.5244ZM26.1181 29.0959C26.7821 29.0904 27.5114 28.6112 27.7301 28.0628C27.8453 27.7748 27.7129 27.5754 27.3406 27.477C26.7821 27.3302 25.5904 27.6017 25.3409 28.0019C25.2008 28.2248 25.2028 28.5406 25.2987 28.7829C25.4004 29.0405 25.7766 29.1264 26.1201 29.0959H26.1181ZM3.88798 28.0365C3.87838 28.5946 4.28522 28.945 4.96648 28.9658C5.55178 28.9824 5.98165 28.7068 5.96054 28.3259C5.93943 27.9036 5.23898 27.3621 4.69781 27.3482C4.21805 27.3358 3.89565 27.61 3.88798 28.0379V28.0365ZM3.27196 25.9301C2.90351 25.9426 2.55808 26.1822 2.6003 26.3982C2.65403 26.6738 3.19712 27.0159 3.53103 26.9854C3.77475 26.9632 4.05877 26.6918 4.06261 26.4799C4.06645 26.1766 3.69223 25.9163 3.27196 25.9301Z" fill="#FE9D12"/>
<path opacity="0.75" d="M5.21982 23.2228C5.21982 23.1078 5.21407 22.9915 5.21982 22.8765C5.23134 22.6619 5.35799 22.5913 5.65544 22.6813C7.09856 23.1217 8.59733 23.4291 10.1422 23.605C11.0499 23.7088 11.9652 23.7822 12.8825 23.8321C14.1184 23.8986 15.36 23.9276 16.5978 23.9775C16.8281 23.9872 16.8473 24.0703 16.7302 24.2005C16.3503 24.6256 16.0029 25.0674 15.5922 25.4759C15.2334 25.8332 14.9187 25.8484 14.4715 25.6075C13.5312 25.0992 12.5064 25.1172 11.6083 25.6823C11.1784 25.9523 10.7927 26.2348 10.7006 26.696C10.6392 26.9965 10.3782 27.2915 10.1364 27.5546C9.94066 27.7679 9.68735 27.7346 9.58372 27.4937C9.49161 27.279 9.46474 27.0464 9.44171 26.8192C9.38798 26.2694 9.42252 25.7113 9.29586 25.1713C9.01568 23.9761 7.85466 24.0274 6.79152 24.1922C6.5785 24.2254 6.39044 24.3417 6.17742 24.3819C5.82816 24.4484 5.52879 24.3805 5.42324 24.1021C5.31577 23.8169 5.24477 23.5233 5.15649 23.2338C5.17568 23.2311 5.19487 23.2283 5.21598 23.2241L5.21982 23.2228Z" fill="#FE9D12"/>
<path opacity="0.25" d="M23.9554 17.0172C23.8633 17.0989 23.8134 17.1584 23.7443 17.2041C22.7867 17.8467 21.8272 18.4865 20.8696 19.1277C20.6604 19.2676 20.4397 19.316 20.1807 19.1859C19.0561 18.6208 17.9316 18.06 16.807 17.4949C16.759 17.4714 16.7283 17.4299 16.6899 17.3966C16.7686 17.3731 16.8454 17.3301 16.926 17.3274C18.1657 17.2775 19.4054 17.2471 20.6432 17.1806C21.4012 17.1404 22.1535 17.0449 22.9076 16.9784C23.1897 16.9535 23.4738 16.9313 23.7578 16.923C23.8173 16.9216 23.8825 16.9825 23.9535 17.0199L23.9554 17.0172Z" fill="#FE9D12"/>
<path opacity="0.75" d="M21.5047 25.5244C21.5047 25.3402 21.543 25.1505 21.497 24.9718C21.3818 24.5204 21.1093 24.1437 20.43 24.0052C20.2784 23.9747 20.1249 23.9373 19.9925 23.8778C19.8025 23.7933 19.837 23.6368 20.0558 23.569C20.2016 23.5233 20.3552 23.4873 20.5087 23.4568C22.0765 23.1591 23.6444 22.8655 25.2103 22.5663C25.7093 22.4708 25.7553 22.4888 25.7688 22.8544C25.7726 22.9693 25.7784 23.087 25.7515 23.1992C25.6268 23.7393 25.3715 23.8238 24.6922 23.5607C24.1779 23.3612 23.9246 23.3862 23.5293 23.7199C23.061 24.1146 22.8883 24.6076 22.6772 25.0923C22.5179 25.4593 22.2608 25.8041 22.0247 26.1504C21.9806 26.2154 21.8175 26.2819 21.7254 26.2722C21.6467 26.2639 21.5488 26.149 21.5373 26.0742C21.5104 25.8914 21.5277 25.7058 21.5277 25.5216C21.5181 25.5216 21.5085 25.5216 21.5008 25.5216L21.5047 25.5244Z" fill="#FE9D12"/>
<path d="M13.4408 0.0263286C2.64816 0.430708 0.203299 5.79151 0.0459376 7.09189C-0.142128 8.6554 0.245518 10.1621 1.07646 11.6065C1.30483 12.0026 1.47562 12.4222 1.98033 12.7227C3.54627 13.652 5.26573 14.3693 7.17325 14.8707C10.4721 15.739 13.8861 16.0741 17.3883 16.1752C19.031 16.0575 20.6756 15.9453 22.3164 15.8193C24.5118 15.649 26.6131 15.1906 28.6876 14.6726C29.2672 14.5286 29.7776 14.2904 30.1749 13.9414C30.8235 13.3695 31.5412 12.7906 31.7351 12.058C33.5908 5.01183 25.4751 -0.425136 13.4408 0.0263286Z" fill="#FE9D12"/>
<path d="M14.6423 22.8862C11.6006 22.7699 8.65873 22.4638 5.8838 21.59C5.01064 21.3158 4.1605 20.9987 3.33148 20.6621C2.61376 20.3727 2.12824 19.9143 1.83079 19.3604C1.05358 17.9049 1.29538 16.4757 2.08986 15.0742C2.37004 14.5798 2.85939 14.4815 3.46389 14.7571C5.62089 15.7417 8.0005 16.2874 10.4818 16.6363C11.165 16.7319 11.8578 16.797 12.5314 16.9202C12.9535 16.9978 13.3834 17.1155 13.7442 17.2886C15.5212 18.1361 17.2714 19.0128 19.0407 19.8686C20.2497 20.453 20.5453 20.5901 21.9538 19.7024C23.3701 18.8106 24.6923 17.8412 26.0491 16.9008C26.4885 16.5962 26.9587 16.3469 27.5383 16.1793C28.0622 16.027 28.4805 16.1004 28.872 16.3275C29.5686 16.7305 29.9236 17.2845 30.1865 17.891C30.7891 19.28 29.5475 20.0473 28.2963 20.7702C27.4788 21.2424 26.525 21.5789 25.435 21.6523C25.1279 21.6731 24.8266 21.7839 24.535 21.8725C23.4737 22.1966 22.3837 22.4223 21.2265 22.4694C20.8178 22.486 20.3994 22.5248 20.0118 22.612C19.1655 22.799 18.3038 22.7103 17.4479 22.7436C16.498 22.781 15.5481 22.8405 14.6442 22.8876L14.6423 22.8862Z" fill="#FE9D12"/>
<path fill-rule="evenodd" clip-rule="evenodd" d="M6.17649 3.50135C5.97712 3.64822 5.87744 3.78198 5.87744 3.90263V11.1178C5.87744 11.7 6.00676 12.1328 6.2654 12.416C6.52942 12.694 6.94702 12.8698 7.51818 12.9432C7.84147 12.9852 8.22674 13.014 8.67397 13.0297C9.12119 13.0507 9.65194 13.0612 10.2662 13.0612C11.1229 13.0612 11.8854 13.0061 12.5535 12.896C13.2271 12.7858 13.7928 12.6101 14.2509 12.3688C14.7142 12.1223 15.0672 11.8023 15.3096 11.4089C15.5521 11.0155 15.6734 10.5355 15.6734 9.96902C15.6734 9.63855 15.6249 9.3212 15.5279 9.01696C15.4309 8.70748 15.2827 8.43472 15.0833 8.19867C14.884 7.95738 14.6307 7.76067 14.3236 7.60856C14.0165 7.45644 13.6527 7.37251 13.2325 7.35677C13.2325 7.22039 13.2675 7.13122 13.3375 7.08925C13.4076 7.04729 13.4992 7.02631 13.6123 7.02631C13.7201 7.02631 13.8467 7.04467 13.9922 7.08139C14.1377 7.11286 14.2859 7.16531 14.4367 7.23875C14.5445 7.16007 14.6388 7.0604 14.7196 6.93976C14.8058 6.81387 14.8759 6.68011 14.9298 6.53848C14.9837 6.39685 15.0241 6.24998 15.051 6.09786C15.078 5.9405 15.0914 5.78575 15.0914 5.63364C15.0914 5.23498 15.0025 4.85468 14.8247 4.49275C14.6523 4.12556 14.3748 3.80297 13.9922 3.52496C13.615 3.24695 13.1247 3.02664 12.5212 2.86403C11.9177 2.69617 11.1876 2.61224 10.3309 2.61224C9.63578 2.61224 9.01073 2.65683 8.45574 2.746C7.90613 2.83518 7.44005 2.94533 7.05748 3.07647C6.67491 3.2076 6.38125 3.34923 6.17649 3.50135ZM10.2469 5.53402C10.1127 5.50184 10 5.61193 10 5.75V7.25C10 7.38807 10.1127 7.49816 10.2469 7.46598C10.5431 7.395 11 7.17597 11 6.5C11 5.82403 10.5431 5.605 10.2469 5.53402ZM10.2469 8.53402C10.1127 8.50184 10 8.61193 10 8.75V10.25C10 10.3881 10.1127 10.4982 10.2469 10.466C10.5431 10.395 11 10.176 11 9.5C11 8.82403 10.5431 8.605 10.2469 8.53402Z" fill="white"/>
<path fill-rule="evenodd" clip-rule="evenodd" d="M17.2991 3.50135C17.0997 3.64822 17 3.78198 17 3.90263V11.1178C17 11.7 17.1293 12.1328 17.388 12.416C17.652 12.694 18.0696 12.8698 18.6407 12.9432C18.964 12.9852 19.3493 13.014 19.7965 13.0297C20.2438 13.0507 20.7745 13.0612 21.3888 13.0612C22.2455 13.0612 23.0079 13.0061 23.6761 12.896C24.3496 12.7858 24.9154 12.6101 25.3734 12.3688C25.8368 12.1223 26.1897 11.8023 26.4322 11.4089C26.6747 11.0155 26.7959 10.5355 26.7959 9.96902C26.7959 9.63855 26.7474 9.3212 26.6504 9.01696C26.5534 8.70748 26.4053 8.43472 26.2059 8.19867C26.0065 7.95738 25.7533 7.76067 25.4462 7.60856C25.139 7.45644 24.7753 7.37251 24.355 7.35677C24.355 7.22039 24.39 7.13122 24.4601 7.08925C24.5301 7.04729 24.6217 7.02631 24.7349 7.02631C24.8427 7.02631 24.9693 7.04467 25.1148 7.08139C25.2603 7.11286 25.4084 7.16531 25.5593 7.23875C25.6671 7.16007 25.7614 7.0604 25.8422 6.93976C25.9284 6.81387 25.9985 6.68011 26.0523 6.53848C26.1062 6.39685 26.1466 6.24998 26.1736 6.09786C26.2005 5.9405 26.214 5.78575 26.214 5.63364C26.214 5.23498 26.1251 4.85468 25.9473 4.49275C25.7748 4.12556 25.4973 3.80297 25.1148 3.52496C24.7376 3.24695 24.2473 3.02664 23.6438 2.86403C23.0403 2.69617 22.3102 2.61224 21.4534 2.61224C20.7583 2.61224 20.1333 2.65683 19.5783 2.746C19.0287 2.83518 18.5626 2.94533 18.18 3.07647C17.7975 3.2076 17.5038 3.34923 17.2991 3.50135ZM21.3695 5.53402C21.2352 5.50184 21.1226 5.61193 21.1226 5.75V7.25C21.1226 7.38807 21.2352 7.49816 21.3695 7.46598C21.6656 7.395 22.1226 7.17597 22.1226 6.5C22.1226 5.82403 21.6656 5.605 21.3695 5.53402ZM21.3695 8.53402C21.2352 8.50184 21.1226 8.61193 21.1226 8.75V10.25C21.1226 10.3881 21.2352 10.4982 21.3695 10.466C21.6656 10.395 22.1226 10.176 22.1226 9.5C22.1226 8.82403 21.6656 8.605 21.3695 8.53402Z" fill="white"/>
</g>
<defs>
<clipPath id="clip0_78_75">
<rect width="32" height="40" fill="white"/>
</clipPath>
</defs>
</svg>
