<svg width="16" height="16" viewBox="0 0 16 16" fill="none" xmlns="http://www.w3.org/2000/svg">
<path d="M7.99997 2C14.2802 2 15.014 3.84885 15.0393 4.64372C15.0461 4.85883 14.8548 5 14.6396 5H1.36035C1.14514 5 0.953842 4.85883 0.960678 4.64372C0.985936 3.84885 1.7197 2 7.99997 2Z" fill="current"/>
<path d="M1 12.2857C1 12.1279 1.12792 12 1.28571 12H14.7143C14.8721 12 15 12.1279 15 12.2857V12.2857C15 13.2325 14.2325 14 13.2857 14H2.71429C1.76751 14 1 13.2325 1 12.2857V12.2857Z" fill="current"/>
<rect opacity="0.5" x="1" y="7" width="14" height="3" rx="0.5" fill="current"/>
</svg>
