<svg width="49" height="49" viewBox="0 0 49 49" fill="none" xmlns="http://www.w3.org/2000/svg">
<g clip-path="url(#clip0_70_11)">
<path d="M1.51625 39.0842C1.30468 37.4026 2.18036 35.8694 3.61142 34.4635C3.90234 34.1772 4.1433 33.857 4.76626 33.9821C5.38923 34.1094 5.81826 34.385 5.90054 34.8473C5.974 35.2651 5.90641 35.6955 5.96519 36.1154C6.03277 36.601 6.08273 37.1036 6.29724 37.5617C6.90845 38.8679 8.50702 39.3663 10.2819 38.8552C12.1155 38.3272 12.0832 38.3293 12.142 39.7437C12.1831 40.7255 12.2448 41.7137 12.4652 42.6786C12.5681 43.126 12.956 43.6095 13.4144 43.9276C14.2107 44.4811 15.2656 44.4535 16.1237 44.023C17.0346 43.565 17.9044 43.0179 18.2571 42.193C18.5568 41.4868 18.8301 40.7764 19.1416 40.0724C19.3208 39.6695 19.55 39.6398 19.9438 39.9261C20.0466 40.0003 20.1407 40.083 20.2288 40.1678C21.6775 41.5101 24.2428 41.5314 25.6739 40.1381C26.4526 39.3832 27.0139 38.5117 27.6692 37.691C27.8396 37.4789 27.9954 37.2627 28.1599 37.0485C28.5272 36.5671 28.5684 36.5523 28.9269 37.04C29.2266 37.4493 29.6497 37.6719 30.2551 37.7928C30.9603 37.9327 31.2189 38.3017 31.2571 38.8276C31.3041 39.4892 31.3688 40.1636 31.6009 40.7998C31.9271 41.701 33.1965 42.1569 34.4307 41.2917C35.2917 40.6895 35.9029 39.9939 36.1968 39.1457C36.3613 38.6707 36.5817 38.2021 36.8227 37.744C36.9784 37.4493 37.2547 37.3793 37.7513 37.4535C39.4586 37.7122 40.0786 37.4641 40.7192 36.3338C41.0483 35.7507 41.4186 35.159 41.0101 34.5017C40.8191 34.1942 40.9954 33.9503 41.3833 33.7913C42.1444 33.4774 42.9025 33.1572 43.6783 32.8625C44.3865 32.5932 44.5716 32.5826 44.936 33.1593C45.5354 34.1115 46.0732 35.0997 46.4317 36.1112C46.7167 36.917 46.7138 37.7801 46.8049 38.6177C47.0429 40.8507 45.8381 42.738 44.1014 44.5044C43.3844 45.2339 39.3939 49.2333 25.9766 48.9852C6.48237 49.0212 3.97874 45.2339 2.01874 41.8791C1.50156 40.997 1.51037 40.0978 1.52213 39.08L1.51625 39.0842ZM39.9934 44.5532C41.0101 44.5447 42.1267 43.811 42.4617 42.9712C42.638 42.5301 42.4353 42.2248 41.8652 42.0742C41.0101 41.8494 39.1853 42.2651 38.8033 42.8779C38.5888 43.2193 38.5917 43.7028 38.7386 44.0739C38.8944 44.4683 39.4703 44.5998 39.9963 44.5532H39.9934ZM5.95343 42.9309C5.93874 43.7855 6.56171 44.322 7.60489 44.3538C8.50114 44.3793 9.15937 43.9573 9.12704 43.3741C9.09472 42.7274 8.02216 41.8982 7.19349 41.877C6.45886 41.8579 5.96519 42.2778 5.95343 42.9331V42.9309ZM5.01016 39.7055C4.44596 39.7246 3.91703 40.0915 3.98168 40.4223C4.06396 40.8443 4.89556 41.3681 5.40686 41.3214C5.78006 41.2875 6.21496 40.8719 6.22084 40.5474C6.22672 40.083 5.6537 39.6843 5.01016 39.7055Z" fill="current"/>
<path opacity="0.5" d="M22.421 35.0446C17.7634 34.8664 13.2587 34.3978 9.00955 33.0597C7.67252 32.6398 6.37075 32.1542 5.1013 31.6389C4.00229 31.1957 3.25884 30.4938 2.80337 29.6456C1.61327 27.4169 1.98352 25.2285 3.20007 23.0824C3.6291 22.3254 4.37842 22.1748 5.30406 22.5968C8.60697 24.1046 12.2507 24.9401 16.0503 25.4744C17.0964 25.6208 18.1572 25.7204 19.1886 25.9092C19.8351 26.0279 20.4933 26.2082 21.0458 26.4732C23.7668 27.771 26.4468 29.1133 29.1561 30.4239C31.0074 31.3187 31.4599 31.5287 33.6168 30.1694C35.7854 28.8037 37.8101 27.3193 39.8876 25.8795C40.5606 25.4129 41.2805 25.0312 42.1679 24.7747C42.9701 24.5414 43.6107 24.6538 44.2102 25.0016C45.2769 25.6186 45.8205 26.4669 46.2231 27.3957C47.1458 29.5226 45.2446 30.6974 43.3286 31.8043C42.0768 32.5275 40.6164 33.0428 38.9473 33.1551C38.4771 33.187 38.0158 33.3566 37.5691 33.4923C35.9441 33.9885 34.275 34.3342 32.5031 34.4063C31.8772 34.4317 31.2366 34.4911 30.643 34.6247C29.3471 34.911 28.0277 34.7753 26.7171 34.8262C25.2626 34.8834 23.808 34.9746 22.4239 35.0467L22.421 35.0446Z" fill="current"/>
<path opacity="0.75" d="M7.99272 35.5599C7.99272 35.3839 7.98391 35.2057 7.99272 35.0297C8.01035 34.7011 8.2043 34.5929 8.65977 34.7307C10.8695 35.4051 13.1645 35.8758 15.5301 36.1452C16.92 36.3042 18.3217 36.4166 19.7263 36.4929C21.6187 36.5947 23.5199 36.6393 25.4153 36.7156C25.7679 36.7304 25.7973 36.8577 25.618 37.057C25.0362 37.708 24.5043 38.3845 23.8755 39.0101C23.326 39.5572 22.8441 39.5805 22.1594 39.2115C20.7195 38.4333 19.1503 38.4608 17.7751 39.326C17.1169 39.7395 16.5262 40.1721 16.3852 40.8783C16.2911 41.3384 15.8915 41.7901 15.5212 42.193C15.2215 42.5196 14.8336 42.4687 14.6749 42.0997C14.5339 41.771 14.4928 41.4148 14.4575 41.067C14.3752 40.2251 14.4281 39.3705 14.2342 38.5435C13.8051 36.7135 12.0273 36.7919 10.3994 37.0443C10.0732 37.0952 9.78523 37.2733 9.45905 37.3348C8.92424 37.4366 8.46583 37.3327 8.30421 36.9064C8.13965 36.4696 8.03092 36.02 7.89575 35.5768C7.92514 35.5726 7.95452 35.5684 7.98685 35.562L7.99272 35.5599Z" fill="current"/>
<path d="M36.6817 26.0576C36.5406 26.1827 36.4642 26.2739 36.3584 26.3438C34.8921 27.3278 33.4228 28.3075 31.9565 29.2893C31.6362 29.5035 31.2983 29.5777 30.9016 29.3784C29.1796 28.5132 27.4576 27.6544 25.7356 26.7892C25.6622 26.7531 25.6152 26.6895 25.5564 26.6386C25.6769 26.6026 25.7944 26.5368 25.9178 26.5326C27.8161 26.4562 29.7144 26.4096 31.6098 26.3078C32.7705 26.2463 33.9224 26.1 35.0772 25.9982C35.5092 25.96 35.9441 25.9261 36.379 25.9134C36.4701 25.9112 36.57 26.0046 36.6787 26.0618L36.6817 26.0576Z" fill="current"/>
<path opacity="0.75" d="M32.9292 39.0842C32.9292 38.8022 32.988 38.5117 32.9175 38.2381C32.7411 37.5468 32.3239 36.97 31.2836 36.758C31.0515 36.7113 30.8164 36.654 30.6137 36.5629C30.3227 36.4335 30.3756 36.1939 30.7106 36.09C30.934 36.02 31.169 35.9649 31.4041 35.9182C33.8049 35.4623 36.2057 35.0127 38.6035 34.5547C39.3675 34.4084 39.4381 34.4359 39.4586 34.9958C39.4645 35.1718 39.4733 35.352 39.4322 35.5238C39.2412 36.3508 38.8504 36.4802 37.8101 36.0773C37.0226 35.7719 36.6347 35.8101 36.0294 36.3211C35.3124 36.9255 35.0479 37.6804 34.7247 38.4226C34.4808 38.9846 34.087 39.5126 33.7256 40.0427C33.658 40.1424 33.4082 40.2442 33.2671 40.2293C33.1467 40.2166 32.9968 40.0406 32.9792 39.9261C32.938 39.6462 32.9645 39.362 32.9645 39.08C32.9498 39.08 32.9351 39.08 32.9233 39.08L32.9292 39.0842Z" fill="current"/>
<path fill-rule="evenodd" clip-rule="evenodd" d="M20.5812 0.0403729C4.05489 0.659579 0.311202 8.8683 0.0702428 10.8595C-0.217733 13.2536 0.37585 15.5608 1.64823 17.7726C1.70069 17.8636 1.75117 17.9554 1.80168 18.0472L1.80173 18.0473C2.08792 18.5678 2.37542 19.0906 3.03228 19.4818C5.43012 20.9047 8.06305 22.0031 10.9839 22.7708C16.0353 24.1004 21.2629 24.6135 26.6258 24.7683C27.3469 24.7167 28.0682 24.6657 28.7896 24.6147L28.7904 24.6146C30.5851 24.4878 32.38 24.361 34.1719 24.2233C37.5336 23.9625 40.7513 23.2606 43.9278 22.4675C44.8153 22.247 45.5969 21.8822 46.2052 21.3479C46.2848 21.2776 46.3652 21.2073 46.4457 21.1368L46.4464 21.1363C47.37 20.328 48.3213 19.4955 48.5942 18.4639C51.4358 7.67442 39.0087 -0.650933 20.5812 0.0403729ZM9 5.9759C9 5.79116 9.15264 5.58635 9.45792 5.36145C9.77145 5.12851 10.2211 4.91165 10.8069 4.71084C11.3927 4.51004 12.1064 4.34137 12.948 4.20482C13.7979 4.06827 14.755 4 15.8193 4C17.1312 4 18.2492 4.12851 19.1733 4.38554C20.0974 4.63454 20.8482 4.97189 21.4257 5.39759C22.0116 5.82329 22.4365 6.31727 22.7005 6.87952C22.9728 7.43373 23.1089 8.01606 23.1089 8.62651C23.1089 8.85944 23.0883 9.09639 23.047 9.33735C23.0058 9.57028 22.9439 9.79518 22.8614 10.012C22.7789 10.2289 22.6716 10.4337 22.5396 10.6265C22.4158 10.8112 22.2715 10.9639 22.1064 11.0843C21.8754 10.9719 21.6485 10.8916 21.4257 10.8434C21.203 10.7871 21.0091 10.759 20.8441 10.759C20.6708 10.759 20.5305 10.7912 20.4233 10.8554C20.316 10.9197 20.2624 11.0562 20.2624 11.2651C20.9059 11.2892 21.4629 11.4177 21.9332 11.6506C22.4035 11.8835 22.7913 12.1847 23.0965 12.5542C23.4018 12.9157 23.6287 13.3333 23.7772 13.8072C23.9257 14.2731 24 14.759 24 15.2651C24 16.1325 23.8144 16.8675 23.4431 17.4699C23.0718 18.0723 22.5314 18.5622 21.8218 18.9398C21.1205 19.3092 20.2541 19.5783 19.2228 19.747C18.1997 19.9157 17.0322 20 15.7203 20C14.7797 20 13.967 19.9839 13.2822 19.9518C12.5974 19.9277 12.0074 19.8835 11.5124 19.8193C10.6378 19.7068 9.99835 19.4378 9.59406 19.012C9.19802 18.5783 9 17.9157 9 17.0241V5.9759ZM15.7203 10.6145C15.745 10.6305 15.7822 10.6426 15.8317 10.6506H15.9431C16.1411 10.6506 16.2814 10.5904 16.3639 10.4699C16.4464 10.3494 16.4876 10.1526 16.4876 9.87952V9.80723C16.4876 9.5261 16.4505 9.32129 16.3762 9.19277C16.3102 9.06426 16.1823 9 15.9926 9C15.9513 9 15.9018 9.00402 15.8441 9.01205C15.7863 9.02008 15.7409 9.03213 15.7079 9.04819C15.7162 9.11245 15.7203 9.18072 15.7203 9.25301V9.48193V10.6145ZM15.7203 15.1566C15.745 15.1727 15.7822 15.1847 15.8317 15.1928H15.9431C16.1411 15.1928 16.2814 15.1446 16.3639 15.0482C16.4464 14.9438 16.4876 14.755 16.4876 14.4819V14.253C16.4876 13.9719 16.4505 13.7631 16.3762 13.6265C16.3102 13.49 16.1823 13.4217 15.9926 13.4217C15.9513 13.4217 15.9018 13.4257 15.8441 13.4337C15.7863 13.4418 15.7409 13.4538 15.7079 13.4699C15.7162 13.5341 15.7203 13.6024 15.7203 13.6747V13.9036V15.1566ZM26.4579 5.36145C26.1526 5.58635 26 5.79116 26 5.9759V17.0241C26 17.9157 26.198 18.5783 26.5941 19.012C26.9984 19.4378 27.6378 19.7068 28.5124 19.8193C29.0074 19.8835 29.5974 19.9277 30.2822 19.9518C30.967 19.9839 31.7797 20 32.7203 20C34.0322 20 35.1997 19.9157 36.2228 19.747C37.2541 19.5783 38.1205 19.3092 38.8218 18.9398C39.5314 18.5622 40.0718 18.0723 40.4431 17.4699C40.8144 16.8675 41 16.1325 41 15.2651C41 14.759 40.9257 14.2731 40.7772 13.8072C40.6287 13.3333 40.4018 12.9157 40.0965 12.5542C39.7913 12.1847 39.4035 11.8835 38.9332 11.6506C38.4629 11.4177 37.9059 11.2892 37.2624 11.2651C37.2624 11.0562 37.316 10.9197 37.4233 10.8554C37.5305 10.7912 37.6708 10.759 37.8441 10.759C38.0091 10.759 38.203 10.7871 38.4257 10.8434C38.6485 10.8916 38.8754 10.9719 39.1064 11.0843C39.2715 10.9639 39.4158 10.8112 39.5396 10.6265C39.6716 10.4337 39.7789 10.2289 39.8614 10.012C39.9439 9.79518 40.0058 9.57028 40.047 9.33735C40.0883 9.09639 40.1089 8.85944 40.1089 8.62651C40.1089 8.01606 39.9728 7.43373 39.7005 6.87952C39.4365 6.31727 39.0116 5.82329 38.4257 5.39759C37.8482 4.97189 37.0974 4.63454 36.1733 4.38554C35.2492 4.12851 34.1312 4 32.8193 4C31.7549 4 30.7979 4.06827 29.948 4.20482C29.1064 4.34137 28.3927 4.51004 27.8069 4.71084C27.2211 4.91165 26.7715 5.12851 26.4579 5.36145ZM32.8317 10.6506C32.7822 10.6426 32.745 10.6305 32.7203 10.6145V9.48193V9.25301C32.7203 9.18072 32.7162 9.11245 32.7079 9.04819C32.7409 9.03213 32.7863 9.02008 32.8441 9.01205C32.9018 9.00402 32.9513 9 32.9926 9C33.1823 9 33.3102 9.06426 33.3762 9.19277C33.4505 9.32129 33.4876 9.5261 33.4876 9.80723V9.87952C33.4876 10.1526 33.4464 10.3494 33.3639 10.4699C33.2814 10.5904 33.1411 10.6506 32.9431 10.6506H32.8317ZM32.8317 15.1928C32.7822 15.1847 32.745 15.1727 32.7203 15.1566V13.9036V13.6747C32.7203 13.6024 32.7162 13.5341 32.7079 13.4699C32.7409 13.4538 32.7863 13.4418 32.8441 13.4337C32.9018 13.4257 32.9513 13.4217 32.9926 13.4217C33.1823 13.4217 33.3102 13.49 33.3762 13.6265C33.4505 13.7631 33.4876 13.9719 33.4876 14.253V14.4819C33.4876 14.755 33.4464 14.9438 33.3639 15.0482C33.2814 15.1446 33.1411 15.1928 32.9431 15.1928H32.8317Z" fill="current"/>
</g>
<defs>
<clipPath id="clip0_70_11">
<rect width="49" height="49" fill="current"/>
</clipPath>
</defs>
</svg>
