<svg width="1196" height="554" viewBox="0 0 1196 554" fill="none" xmlns="http://www.w3.org/2000/svg">
<g clip-path="url(#clip0_48_23)">
<path d="M1064.61 100.46C1064.61 96.1299 1064.82 91.7799 1064.56 87.4699C1064.26 82.5299 1063.55 77.6099 1063.02 72.6799C1062.9 71.5299 1062.55 70.3299 1062.73 69.2299C1063.63 63.6899 1064.61 58.1599 1065.66 52.6499C1067.2 44.5099 1073.12 40.9099 1080.33 38.7099C1080.65 38.6099 1081.08 38.2899 1081.24 38.3999C1081.69 38.6899 1082.09 39.1099 1082.36 39.5699C1082.47 39.7499 1082.11 40.1699 1082.06 40.4899C1081.16 46.1499 1082.7 49.1999 1087.59 52.0199C1090.79 53.8599 1093.68 52.7199 1096.62 51.4599C1096.91 51.3299 1097.14 51.0499 1097.39 50.8299C1101.61 47.1899 1102.85 47.1499 1103.86 52.9299C1104.06 54.0599 1104.42 55.2099 1104.91 56.2499C1107.19 61.1099 1112.79 62.3799 1117.03 59.0499C1117.5 58.6799 1117.94 58.2599 1118.4 57.8599C1118.52 58.4999 1118.69 59.1399 1118.74 59.7899C1119.09 64.7399 1119.27 69.7199 1119.81 74.6499C1120.04 76.7499 1120.74 78.8899 1121.66 80.7999C1123.21 84.0299 1126.15 84.7199 1129.13 82.8099C1131.31 81.4199 1132.8 79.4499 1133.56 76.9599C1134.72 73.1499 1135.94 69.3499 1135.63 65.2699C1135.54 64.1099 1135.63 62.9399 1135.71 61.7799C1135.8 60.4599 1136.49 60.5899 1137.32 61.1999C1138.25 61.8899 1139.1 62.7499 1140.12 63.2299C1142.85 64.5199 1145.55 64.7399 1147.93 62.3599C1148.99 61.2999 1149.63 61.5699 1149.73 63.0599C1149.78 63.8899 1149.8 64.7299 1149.77 65.5599C1149.42 74.0199 1149.55 82.5299 1148.55 90.9099C1147.32 101.23 1145.5 111.52 1143.27 121.68C1140.18 135.74 1136.74 149.73 1132.95 163.62C1129.5 176.24 1125.94 188.87 1121.42 201.13C1116.41 214.72 1109.29 227.26 1099.95 238.55C1091.74 248.48 1082.13 256.36 1070.47 261.7C1064.71 264.34 1058.59 265.56 1052.25 266.26C1045.45 267.01 1038.68 267.31 1031.87 267.08C1025.74 266.87 1019.54 266.92 1013.52 265.95C1007.98 265.06 1002.88 262.63 998.15 259.23C990.38 253.64 985.72 245.95 982.38 237.37C978.17 226.54 978.66 215.61 982.88 204.84C983.23 203.93 983.88 203.1 984.54 202.37C985.12 201.73 985.91 201.28 986.61 200.75C986.98 201.62 987.59 202.47 987.68 203.38C988.12 207.49 988.42 211.62 988.77 215.74C989.14 220.02 991.29 221.25 995.2 219.25C998.45 217.59 1001.62 215.76 1004.81 213.98C1006.08 213.27 1007.08 213.18 1008.39 214.21C1014.84 219.28 1022.1 222.92 1029.83 225.54C1034.33 227.07 1036.06 227.42 1039.19 222.13C1042.82 215.99 1046.73 210 1050.72 204.09C1051.78 202.52 1053.6 201.45 1055.07 200.16C1056.8 198.63 1056.95 197.29 1055.06 196.14C1053.43 195.15 1051.46 194.51 1049.57 194.23C1042.38 193.16 1035.16 192.31 1027.96 191.36C1025.01 190.97 1021.99 190.81 1019.13 190.08C1016.78 189.48 1014.16 188.68 1012.41 187.13C1003.28 179.04 995.23 170.01 989.63 159.03C984.92 149.81 981.72 140.03 979.86 129.89C978.97 125.03 979.11 119.99 978.6 115.05C978.4 113.12 978.19 110.91 977.15 109.4C971.15 100.68 968.19 90.7899 966.88 80.5799C965.52 69.9699 966.77 59.3599 970.73 49.2499C970.99 48.5999 971.76 48.1499 972.29 47.5999C972.75 48.0499 973.33 48.4399 973.63 48.9799C974.1 49.8499 974.48 50.7899 974.73 51.7499C975.4 54.2999 977.03 56.1499 978.93 57.8099C981.56 60.1099 982.53 60.3499 985.53 58.4699C987.37 57.3199 987.69 57.6399 987.77 59.5899C988.04 66.9199 989.27 74.0699 991.8 80.9799C992.62 83.2299 993.76 85.1399 996.05 86.2699C997.77 87.1099 999.27 87.1999 1000.53 85.6599C1001.35 84.6599 1002.33 83.5799 1002.63 82.3899C1003.47 79.0399 1004.08 75.6199 1004.63 72.1999C1005.34 67.7999 1005.9 63.3799 1006.56 58.9699C1006.63 58.5099 1006.96 58.0899 1007.16 57.6499C1007.65 58.0599 1008.24 58.3899 1008.59 58.8799C1009.07 59.5499 1009.3 60.3899 1009.74 61.0899C1013.17 66.6099 1019.78 66.3899 1022.81 60.6699C1023.12 60.0899 1023.37 59.4599 1023.56 58.8299C1023.84 57.9099 1024.14 57.2699 1025.21 58.0899C1027.1 59.5399 1028.86 59.2099 1030.63 57.7499C1031.87 56.7199 1032.96 57.4199 1033.42 58.6099C1034.32 60.9099 1034.98 63.3099 1035.73 65.6699C1036.13 66.9199 1036.3 68.2999 1036.93 69.4199C1038.56 72.3399 1041.34 73.0799 1044.05 70.9899C1045.77 69.6699 1046.46 69.3999 1047.55 71.5399C1049.53 75.4199 1052.01 78.9099 1056.16 80.9199C1056.95 81.2999 1057.63 82.7199 1057.68 83.6899C1058.11 92.4699 1058.99 101.3 1058.52 110.05C1058.06 118.73 1057.72 127.64 1053.47 135.68C1052.96 136.65 1052.61 137.97 1052.82 139C1053.01 139.94 1053.91 141.02 1054.78 141.45C1055.4 141.75 1056.84 141.36 1057.32 140.78C1058.57 139.28 1059.92 137.64 1060.48 135.83C1062 130.94 1063.52 126.05 1063.71 120.82C1063.96 114.03 1064.6 107.26 1065.08 100.48C1064.92 100.48 1064.75 100.46 1064.59 100.45L1064.61 100.46ZM1110.22 209.48C1109.18 208.04 1108.52 206.23 1107.29 205.67C1106.01 205.09 1103.74 205.14 1102.67 205.93C1098.34 209.16 1095.58 213.77 1093.12 218.49C1092.21 220.23 1093.22 223.32 1094.7 224.38C1096.63 225.76 1098.35 224.53 1099.65 223.4C1102.27 221.11 1104.83 218.67 1107 215.96C1108.39 214.22 1109.05 211.89 1110.21 209.47L1110.22 209.48ZM1010.46 258.03C1014.43 258.17 1016.18 255.94 1014.93 252.62C1012.85 247.14 1008.7 243.74 1003.13 242.3C1001.73 241.94 999.61 242.27 998.54 243.15C996.9 244.5 997.91 246.49 998.74 248.15C999.11 248.89 999.4 249.7 999.88 250.36C1002.7 254.18 1006.1 257.2 1010.46 258.03V258.03ZM1091.64 205.33C1091.58 201.84 1089.68 200.46 1087.36 201.36C1084.33 202.54 1080.38 209.13 1080.78 212.34C1081.14 215.14 1083.99 216.49 1086.25 214.69C1089.5 212.12 1090.67 208.31 1091.64 205.33V205.33ZM1027.66 252.27C1027.64 249.37 1026.65 247.35 1024.76 246.18C1022.06 244.51 1018.88 246.15 1018.75 249.29C1018.65 251.58 1019.61 253.48 1021.21 254.99C1022.4 256.12 1023.7 257.07 1025.6 256.13C1027.4 255.24 1027.76 253.81 1027.67 252.26L1027.66 252.27ZM1101.36 199.1C1101.7 198.98 1103.26 198.92 1103.71 198.18C1104.87 196.25 1105.82 194.08 1106.24 191.89C1106.4 191.05 1105.06 189.39 1104.07 189.03C1103.13 188.69 1101.21 189.18 1100.67 189.96C1099.39 191.8 1098.38 193.96 1097.81 196.14C1097.26 198.24 1098.26 199.05 1101.36 199.1V199.1ZM1008.19 239.95C1009.76 239.96 1011.5 238.14 1011.62 236.35C1011.75 234.4 1009.98 232.24 1008.23 232.21C1006.65 232.19 1004.94 233.99 1004.82 235.81C1004.68 237.78 1006.44 239.93 1008.2 239.95H1008.19Z" fill="white"/>
<path d="M367.78 381.44C367.78 394.94 368.01 408.44 367.69 421.93C367.5 429.89 371.12 435.56 376.77 440.42C378.02 441.5 379.3 442.59 380.68 443.48C381.57 444.05 382.66 444.41 383.71 444.62C385.34 444.94 386.75 445.04 387.37 447.18C387.7 448.33 389.47 449.05 390.58 449.98C394.94 453.64 394.43 453.6 393.01 458.93C392.11 462.28 391.34 465.75 389.83 468.83C384.02 480.68 374.79 488.78 362.37 493.43C354.37 496.42 346.03 497.8 337.7 498.93C331.73 499.74 325.89 497.5 320.43 495C312.58 491.41 306 486.19 301.14 478.94C300.59 478.12 300.13 477.05 299.34 476.63C298.28 476.06 296.8 475.52 295.77 475.84C294.3 476.3 293.83 479.05 294.69 480.52C295.95 482.67 297.35 484.74 298.59 486.89C300.01 489.35 299.75 490.57 296.97 491.39C292.06 492.85 287.07 494.08 282.04 495.06C278.65 495.72 275.14 495.91 271.68 496.1C265.85 496.43 260.17 495.19 254.43 494.36C246.41 493.2 239 490.48 231.95 486.72C220.99 480.87 212.17 472.72 206.49 461.56C203.46 455.61 201.48 449.32 201.56 442.47C201.7 431.81 201.72 421.14 201.56 410.48C201.44 402.19 201 393.9 200.62 385.61C200.57 384.49 200.17 383.33 199.7 382.3C195.12 372.2 192.47 361.7 192.57 350.53C192.6 346.75 191.69 342.96 191.71 339.17C191.74 332.64 194.59 326.94 198.08 321.67C199.36 319.74 201.53 318.15 204.31 318.06C212.93 317.79 221.56 317.12 230.17 317.21C235.42 317.26 240.73 318.08 245.88 319.18C254.2 320.96 262.09 323.96 269.23 328.78C272.79 331.18 275.45 334.29 277.54 337.89C278.33 339.25 278.58 341.02 278.76 342.63C278.96 344.44 278.76 346.29 278.79 348.12C279.12 367.58 279.41 387.03 279.83 406.49C279.95 412.29 280.42 418.08 280.8 423.87C280.95 426.19 281.89 427.07 283.78 427.04C285.67 427.02 286.71 426.14 286.64 423.78C286.5 418.69 287.01 413.62 286.91 408.51C286.44 385.02 286.66 361.52 286.63 338.03C286.63 337.53 286.63 337.03 286.65 336.53C286.68 334.96 287.04 333.79 289 334.71C291.74 336 294.09 335.59 296.13 333.27C296.8 332.51 297.66 332.45 297.72 333.78C298 339.5 299.52 344.91 301.93 350.04C302.89 352.09 304.26 354.09 305.88 355.66C308.71 358.4 313.05 357.67 314.57 354.07C315.71 351.39 316.08 348.35 316.58 345.43C316.86 343.81 316.66 342.11 316.8 340.45C316.83 340.11 317.4 339.82 317.72 339.51C318.03 339.84 318.47 340.11 318.62 340.5C319.15 341.88 319.35 343.45 320.1 344.68C322.15 348.06 326.15 348.11 328.25 344.77C329.21 343.25 329.68 341.42 330.35 339.73C330.65 338.96 330.76 338.08 331.2 337.41C331.5 336.95 332.19 336.63 332.76 336.5C332.97 336.45 333.51 337.1 333.61 337.51C334.37 340.56 335.15 343.61 335.75 346.7C336.82 352.22 337.7 357.77 338.81 363.28C339.1 364.7 339.72 366.18 340.59 367.33C342.96 370.48 345.61 370.54 348.51 367.85C350.25 366.23 351.55 364.43 352.24 362.1C353.61 357.47 354.61 352.83 354.71 347.95C354.79 343.82 355.34 339.7 355.78 335.58C355.95 334.02 356.75 333.04 358.49 334C360.82 335.28 363.23 335.44 365.72 334.6C367.04 334.16 367.6 334.77 367.67 335.97C367.75 337.3 367.72 338.63 367.72 339.97C367.72 353.8 367.72 367.63 367.72 381.46H367.8L367.78 381.44ZM365.75 471.04C365.88 474.63 368.65 477.08 371.44 476.63C375.12 476.04 378.49 474.94 380.27 471.14C381.31 468.9 382.79 466.87 383.83 464.64C385.14 461.83 384.09 458.29 381.73 456.76C379.77 455.49 376.54 455.92 374.47 457.85C372.89 459.31 371.26 460.77 369.96 462.46C367.83 465.21 366.25 468.28 365.75 471.05V471.04ZM237.67 474.98C237.05 473.55 236.09 470.92 234.78 468.47C233.12 465.37 229.31 464.18 226.74 465.68C222.95 467.9 222.1 470.63 223.82 474.44C225.2 477.47 227.34 479.6 230.37 480.97C234.59 482.87 237.55 481.02 237.66 474.99L237.67 474.98ZM212.64 335.05C212.64 334.94 212.89 333.87 212.47 333.34C211.29 331.85 210.04 330.17 208.42 329.37C207.43 328.88 205.32 329.41 204.39 330.24C201.5 332.8 200.76 341.05 202.82 344.27C204.24 346.48 207.56 346.89 209.15 344.82C211.17 342.19 212.77 339.28 212.65 335.05H212.64ZM247.69 466.35C247.77 462.9 245.32 460.13 242.17 460.12C239.35 460.12 237.83 461.73 237.75 464.84C237.66 468.38 240.03 471.07 243.23 471.05C246.07 471.04 247.61 469.41 247.68 466.35H247.69ZM365.58 483.04C365.56 481.19 363.92 479.3 362.28 479.25C360.72 479.2 357.95 481.81 357.84 483.43C357.72 485.23 359.84 487.1 361.88 486.98C363.93 486.87 365.61 485.08 365.58 483.03V483.04ZM370.61 446.89C370.51 444.93 369.14 443.96 366.74 444.14C364.53 444.31 363.64 445.38 363.73 447.77C363.81 450.04 365.09 451.26 367.13 451.02C369.12 450.79 370.72 448.9 370.61 446.9V446.89Z" fill="white"/>
<path d="M786.77 114.45C786.77 121.45 786.67 128.45 786.82 135.45C786.89 138.75 787.4 142.04 787.82 145.32C787.92 146.1 788.27 146.95 788.77 147.55C792.69 152.28 797.53 155.85 803.62 156.93C808.5 157.8 809.96 158.23 810.7 164.76C811.67 173.35 809.8 181.22 803.69 187.8C801.11 190.59 799.19 194.02 796.48 196.65C793.41 199.64 790.04 202.5 786.36 204.64C777.84 209.58 768.72 212.75 758.85 214.36C747.15 216.26 736.6 213.41 725.94 209.33C715.01 205.15 709.29 196.51 707.11 186.01C705.49 178.22 704.37 169.93 706.51 161.82C706.68 161.19 706.56 160.49 706.62 159.83C707.26 152.41 707.91 145 708.56 137.58C708.57 137.41 708.59 137.25 708.59 137.08C708.93 129.46 709.44 121.83 709.55 114.2C709.62 109.52 708.54 104.98 706.05 100.9C704.7 98.69 703.09 97.9 701.69 98.71C699.89 99.75 699.44 101.35 700.64 103.85C702.35 107.39 702.94 111.07 702.81 114.97C702.67 119.13 702.97 123.32 702.69 127.46C702.25 134.06 701.5 140.63 700.88 147.22C700.85 147.55 700.8 147.88 700.79 148.21C700.45 157.17 699.58 166.14 699.92 175.08C700.24 183.29 700.79 191.72 705.9 198.84C707.18 200.63 706.61 201.9 704.94 202.99C698.33 207.31 691.33 210.28 683.34 211.32C677.18 212.12 671.07 212.35 664.95 212.05C652.34 211.43 640.44 208.15 629.76 201.15C628.93 200.61 628.17 199.96 627.4 199.33C625.84 198.03 625.17 196.46 626.02 194.47C629.31 186.75 629.95 178.43 631.42 170.3C632.22 165.87 630.95 161.63 629.17 157.74C628.48 156.24 626.14 155.08 624.33 154.6C620.49 153.59 619.56 151.26 619.6 147.6C619.74 134.27 619.6 120.94 619.66 107.61C619.66 105.21 619.32 103.02 618.08 100.93C612.19 91.05 610.28 80.23 610.57 68.9C610.65 65.74 610.57 62.56 610.72 59.4C610.76 58.51 611.4 57.66 611.77 56.78C612.35 57.45 613.07 58.05 613.47 58.82C614.24 60.28 614.6 61.99 615.54 63.31C618.1 66.91 621.03 67.03 624.2 63.88C624.54 63.54 624.87 63.19 625.2 62.84C625.39 63.41 625.64 63.97 625.75 64.55C626.43 68.12 627 71.72 627.76 75.27C628.44 78.43 629.96 81.16 632.41 83.34C634.96 85.61 637.62 85.77 640.53 83.81C643.12 82.06 644.65 79.57 645.65 76.67C647.46 71.47 648.59 66.15 648.61 60.62C648.61 59.79 648.57 58.92 648.8 58.14C649.15 56.97 649.81 56.23 651.35 56.4C660.23 57.35 662.55 55.86 665.33 47.68C665.7 46.58 666.04 45.46 666.45 44.38C667.4 41.89 667.62 41.8 669.99 42.76C673.77 44.29 673.75 44.38 671.2 47.18C664.9 54.08 660.92 62.23 658.75 71.24C658.06 74.11 657.96 77.13 657.74 80.09C657.63 81.54 658.32 82.94 659.91 82.86C660.84 82.82 661.97 81.94 662.55 81.12C663.17 80.23 663.49 78.97 663.54 77.85C664 67.67 668.8 59.41 675.33 52.12C677.94 49.2 681.29 46.75 684.7 44.78C694.67 39 705.22 34.65 716.76 33.01C733.66 30.61 749.11 34.39 762.82 44.33C767.45 47.68 771.47 52.18 774.91 56.79C779.67 63.17 783.81 70.1 785.16 78.18C785.92 82.74 786.48 87.37 786.63 91.98C786.87 99.47 786.69 106.98 786.69 114.47C786.71 114.47 786.73 114.47 786.75 114.47L786.77 114.45ZM716.7 186.45C716.4 190.63 718.08 194.25 720.12 197.67C721.91 200.68 724.97 202.17 728.23 202.93C731.31 203.65 733.5 201.93 733.6 198.76C733.84 191.15 730.71 184.93 725.01 180.08C722.01 177.53 717.83 179.16 716.94 182.98C716.68 184.09 716.77 185.28 716.7 186.44V186.45ZM762.14 66.36C763.2 70.32 763.99 74.39 765.45 78.2C766.16 80.05 767.93 81.74 769.62 82.92C772.49 84.93 775.27 83.64 776.77 80.46C777.9 78.07 776.89 75.96 776.7 73.71C776.38 70.04 775.6 66.52 773.76 63.3C771.8 59.88 771.05 59.69 765.83 61.11C762.77 61.95 762.71 62.04 762.14 66.35V66.36ZM750.18 59.05C754.63 59.05 756.1 58.17 756.63 55.44C757.53 50.76 754.22 44.5 749.8 42.73C747.58 41.84 745.21 41.51 743.23 43.21C741.21 44.94 740.09 47.4 740.98 49.91C741.84 52.34 743.45 54.53 744.91 56.7C746.22 58.63 748.15 59.49 750.19 59.05H750.18ZM743.49 197.08C741.42 196.93 739.83 197.8 739.07 199.66C738.35 201.42 738.33 203.38 739.98 204.69C742.72 206.86 745.67 208.83 749.29 208.95C750.86 209 752.64 208.59 754 207.82C757 206.11 757.11 202.45 754.24 200.5C751.03 198.32 747.3 197.5 743.49 197.09V197.08ZM711.5 166.68C711.61 166.69 711.72 166.71 711.83 166.72C711.83 168.04 711.67 169.39 711.86 170.68C712.25 173.3 714.07 174.91 716.49 175.01C718.51 175.09 719.67 174.05 720.71 171.56C722.18 168.04 720.73 164.81 719.83 161.55C719.33 159.72 717.89 159.09 716 159.1C714.01 159.11 712.88 160.17 712.39 161.88C711.94 163.44 711.78 165.08 711.49 166.69L711.5 166.68ZM735.67 181.65H735.8C735.8 182.64 735.67 183.65 735.83 184.61C736.29 187.41 737.46 188.29 740.22 188.08C742.41 187.92 743.73 186.69 743.5 184.08C743.32 182.04 742.47 179.98 741.52 178.13C741.12 177.37 739.51 176.61 738.72 176.82C737.63 177.12 736.63 178.23 735.91 179.22C735.5 179.79 735.73 180.82 735.68 181.64L735.67 181.65Z" fill="white"/>
<path d="M602.78 103.04C602.78 115.87 602.7 128.69 602.85 141.52C602.88 144.1 603.52 146.79 604.42 149.23C605.4 151.88 607.22 153.95 609.99 155.29C613.41 156.95 616.6 159.1 619.86 161.08C622.48 162.68 623.85 165.08 623.76 168.15C623.51 176.84 622.69 185.48 617.68 192.91C615.58 196.03 612.74 198.76 609.88 201.26C601.16 208.87 590.47 212.76 579.61 215.85C569.09 218.84 559.37 215.64 550.22 210.18C544.4 206.71 539.72 202.11 535.91 196.56C535.36 195.75 534.79 194.85 534 194.34C532.96 193.67 531.62 192.53 530.48 194.02C529.53 195.26 528.27 196.55 529.6 198.45C531.12 200.62 532.47 202.92 533.76 205.24C534.92 207.32 534.71 208.31 532.5 209.12C529.56 210.2 526.49 210.94 523.44 211.68C516 213.5 508.4 214.57 500.79 214.02C483.53 212.77 467.57 207.63 454.33 196.07C445.07 187.99 439.13 177.73 436.75 165.56C436.56 164.59 436.67 163.57 436.67 162.57C436.65 152.08 436.75 141.58 436.58 131.09C436.43 121.97 436.01 112.85 435.64 103.73C435.59 102.61 435.25 101.42 434.76 100.41C431.1 92.87 428.61 84.88 427.93 76.64C427.14 67.08 426.7 57.34 429.9 48C430.81 45.35 432.32 42.89 433.61 40.38C433.81 40 434.31 39.77 434.67 39.48C435.02 39.96 435.58 40.4 435.7 40.93C436.44 44.32 437 47.75 437.77 51.13C439.42 58.28 440.97 59.18 447.75 56.9C450.74 55.9 453.63 54.62 456.62 53.62C459.22 52.75 459.72 53.05 460.73 55.57C461.66 57.88 462.56 60.2 463.44 62.52C464.21 64.56 465.76 65.49 467.76 64.98C471.28 64.07 474.96 63.34 478.14 61.7C485.81 57.75 493.21 53.28 500.76 49.09C503.98 47.3 505.68 47.56 508.3 50.22C511.91 53.88 514.29 57.93 513.9 63.49C513.49 69.46 513.31 75.53 513.9 81.46C515.33 95.91 514.34 110.38 514.84 124.82C515.03 130.45 515.49 136.07 515.78 141.7C515.88 143.6 516.47 144.96 518.62 145.04C520.64 145.12 521.68 144.1 521.69 141.46C521.71 136.21 521.98 130.97 521.89 125.7C521.49 103.55 521.67 81.39 521.63 59.24C521.63 58.24 521.65 57.24 521.66 56.24C521.67 54.99 522.12 54.28 523.45 54.98C526.7 56.69 529.85 56.9 533.39 55.44C536.46 54.17 537.93 54.92 539.23 58.2C541 62.65 542.26 67.31 543.84 71.85C544.65 74.2 545.43 76.61 546.65 78.75C549.35 83.49 551.79 83.46 555.56 81.2C558.63 79.35 560.24 76.53 561.45 73.4C562.16 71.56 562.42 69.55 563.02 67.65C563.88 64.95 564.97 64.69 566.76 66.65C567.93 67.94 568.37 69.88 570.69 70.1C573.2 70.34 574.78 68.77 576.46 67.56C579.14 65.63 581.59 63.35 584.11 61.2C586.15 59.45 588.23 58.61 590.93 59.96C593.86 61.42 597.11 61.4 600.23 60.9C602.35 60.56 602.78 61.14 602.77 63.08C602.71 73.07 602.75 83.07 602.75 93.06C602.75 96.39 602.75 99.72 602.75 103.05H602.82L602.78 103.04ZM454.32 173.1C450.7 173.16 449.91 173.83 449.74 176.55C449.57 179.22 449.95 181.74 451.22 184.24C454.85 191.41 461.08 195.19 468.26 197.74C471.36 198.84 474.01 196.61 473.58 193.28C473.35 191.54 472.57 189.77 471.67 188.24C468.07 182.1 462.8 177.61 456.83 173.9C455.9 173.32 454.68 173.21 454.33 173.11L454.32 173.1ZM618.21 174.46C617.16 173.02 616.51 171.28 615.28 170.63C613.39 169.63 611.03 169.53 609.24 171.16C607.16 173.05 605.06 174.98 603.37 177.2C601.99 179.01 601.03 181.21 600.18 183.35C599.14 185.96 599.96 188.72 601.84 190.06C603.74 191.41 605.66 191.24 608.1 189.08C610.45 187 612.89 184.88 614.68 182.35C616.25 180.14 616.97 177.33 618.21 174.46V174.46ZM583.55 190.43C583.94 191.27 584.44 192.82 585.37 194.06C585.71 194.51 587.36 194.62 587.88 194.21C592.53 190.61 595.1 185.6 596.54 180.05C597.23 177.4 596.09 175.22 594.27 174.53C592.04 173.69 590.19 174.92 589.02 176.45C586.06 180.3 584.11 184.68 583.56 190.43H583.55ZM453.61 158.91C453.61 158.19 453.88 157.1 453.56 156.23C452.71 153.95 451.91 151.53 450.51 149.59C448.74 147.16 444.34 147.53 444.01 150C443.33 155.07 443.04 160.26 445.75 164.96C446.82 166.82 448.42 167.02 450.41 166.18C453.67 164.81 453.93 162.14 453.61 158.91ZM470.14 167.18C469.57 165.02 469.5 162.49 468.3 160.72C466.24 157.65 463.74 157.48 461.82 160.83C460.22 163.62 461.1 171.67 463.29 174.02C464.72 175.55 467.39 175.45 468.33 173.49C469.23 171.63 469.51 169.47 470.13 167.18H470.14ZM599.66 196.92C599.45 196.58 598.95 194.81 598.12 194.64C596.9 194.39 595.15 194.92 594.17 195.76C592.57 197.13 592.28 199.27 592.98 201.28C593.2 201.9 594.1 202.65 594.74 202.71C597.73 202.97 599.73 200.93 599.66 196.93V196.92Z" fill="white"/>
<path d="M794.96 497.07C784.83 497.54 774.94 496.7 765.27 494.06C757.4 491.91 749.88 489.19 743.46 483.7C738.31 479.3 732.6 475.58 727.73 470.76C720.49 463.58 715.41 455.05 711.81 445.72C709.07 438.64 707.06 431.25 705.23 423.87C704.42 420.6 704.74 417.03 704.7 413.59C704.62 407.59 704.49 401.59 704.69 395.6C705.22 379.35 709.8 364.33 718.42 350.47C728.06 334.98 741.92 324.91 758.71 318.69C765.5 316.18 772.55 314.09 779.66 312.77C785.06 311.77 790.61 310.58 796.31 311.87C799.83 312.67 803.57 312.39 807.15 313C822.29 315.58 835.98 321.53 848.15 330.96C858.55 339.01 867.02 348.7 872.86 360.5C879.12 373.16 880.74 386.63 877.37 400.25C875.06 409.6 870 417.66 861.42 422.97C859.45 424.19 857.66 425.69 855.8 427.08C847.76 433.1 838.36 435.86 828.8 438.02C823.67 439.18 818.31 440.12 813.09 439.95C800.07 439.52 787.36 437.31 776.1 430.03C774.71 429.13 773.42 427.9 771.89 427.44C770.85 427.13 769.18 427.55 768.35 428.28C767.17 429.32 767.78 430.8 768.91 431.74C770.56 433.12 772.39 434.29 774.01 435.7C775.22 436.76 776.32 437.98 777.29 439.27C777.98 440.19 778.25 441.4 778.89 442.37C781.39 446.15 781.91 450.3 781.87 454.74C781.83 458.86 782.16 463.03 782.87 467.09C783.21 469.06 784.52 471.03 785.85 472.62C787.7 474.82 790.07 475.27 793.03 474.21C799.07 472.05 802.75 467.56 806.02 462.44C807.08 460.78 808.22 459.08 809.66 457.77C811.68 455.95 812.92 456.19 814.73 458.19C815.73 459.3 816.61 460.53 817.71 461.54C821.8 465.28 826.78 464.96 830.45 460.8C830.78 460.43 831.05 460.01 831.38 459.63C832.35 458.53 833.21 456.74 834.34 456.55C835.4 456.37 836.79 457.82 837.97 458.65C841.3 460.99 848.01 460.74 850.73 456.12C853.65 451.17 854.88 445.67 856.59 440.32C857.56 437.27 858.45 434.26 861.23 432.32C863.02 431.08 863.94 431.13 864.7 433.16C866.54 438.12 868.28 443.14 869.65 448.24C871.17 453.9 870.92 459.78 870.69 465.58C870.59 468.2 870.19 470.89 869.38 473.38C868.85 475.01 867.67 476.87 866.24 477.68C859.73 481.34 853.14 484.91 846.36 488.03C838.03 491.86 829.02 493.48 820.06 495.15C811.72 496.7 803.32 497.51 794.96 497.08V497.07ZM797.32 373.16C793.16 373.16 788.77 374.34 785.77 376.08C783.27 377.53 781.93 379.66 781.74 382.52C781.54 385.6 784.19 389.39 787.7 390.91C793.95 393.62 800.3 393.37 806.5 390.91C809.7 389.64 812.13 387.05 812.48 383.52C812.83 380 810.4 377.71 807.55 376.07C804.36 374.24 800.98 372.88 797.32 373.16V373.16ZM718.73 361.45C718.83 365.42 720.16 366.83 723.22 367.07C728.68 367.5 736.97 361.68 738.42 356.35C738.63 355.57 738.66 354.71 738.64 353.9C738.58 350.13 735.19 347.6 731.54 348.7C726.4 350.26 722.79 353.85 719.82 358.1C719.02 359.24 718.91 360.85 718.72 361.45H718.73ZM821.64 370.53C821.6 370.22 821.64 369.52 821.42 368.92C820.16 365.55 812.51 359.44 807.93 360.14C805.28 360.54 803.53 361.53 803.04 363.63C802.52 365.85 803.52 367.68 805.26 368.74C808.78 370.89 812.38 372.97 816.14 374.64C818.98 375.91 821.47 373.97 821.63 370.53H821.64Z" fill="white"/>
<path d="M1116.73 310.6C1138.22 310.63 1158.02 316.53 1176.78 326.58C1178.52 327.51 1179.88 328.63 1180.37 330.47C1182.35 337.96 1184.35 345.27 1183.11 353.39C1181.98 360.81 1179.75 367.54 1176.24 374C1175.69 375.01 1175.06 376 1174.32 376.89C1173.37 378.04 1172.19 378.26 1170.74 377.64C1166.92 376.01 1163.11 374.36 1159.21 372.94C1147.24 368.57 1134.93 366.13 1122.13 367.22C1120.04 367.4 1117.94 368.21 1115.98 369.05C1113.86 369.95 1113.18 371.74 1114.01 373.45C1114.85 375.18 1116.25 375.15 1117.82 374.53C1118.43 374.29 1119.1 374.12 1119.74 374.1C1121.35 374.04 1122.12 375.41 1121.22 376.8C1120.68 377.63 1119.88 378.28 1119.25 379.05C1116.26 382.7 1117.12 386.55 1121.53 387.94C1123.12 388.44 1123.41 389.41 1124.07 390.55C1125.43 392.93 1126.32 393.13 1128.99 392.45C1131.23 391.88 1133.49 391.35 1135.75 390.88C1139.2 390.18 1139.22 390.2 1140.65 392.95C1141.42 394.43 1142.13 395.93 1142.87 397.43C1145.71 403.16 1148.06 402.31 1151.89 399.9C1153.99 398.58 1155.99 397.07 1157.89 395.47C1160.24 393.48 1162.52 393.32 1164.99 395.16C1166.19 396.05 1167.45 396.86 1168.71 397.67C1171.7 399.6 1171.95 399.72 1174.74 397.4C1176.21 396.18 1177.15 396.19 1178.6 397.31C1179.9 398.31 1181.5 398.93 1182.97 399.7C1185.7 401.13 1187.85 403.15 1189.16 405.97C1193.04 414.32 1195.61 422.95 1195.83 432.28C1196.03 440.69 1195.39 448.87 1191.97 456.66C1189.77 461.68 1187.15 466.37 1183.74 470.75C1179.59 476.1 1174.6 480.35 1169.12 484.1C1160.8 489.77 1151.42 493.13 1141.82 495.84C1138.99 496.64 1135.95 496.82 1132.98 497C1125.7 497.45 1118.37 498.36 1111.12 497.95C1095.07 497.05 1079.14 495.22 1063.93 489.33C1054.08 485.52 1045.41 480.23 1039.54 471.28C1035.96 465.83 1033.81 459.85 1033.5 453.09C1033.09 444.16 1034.96 435.95 1039.12 428.15C1039.59 427.27 1040.08 426.4 1040.65 425.59C1041.11 424.93 1041.71 424.36 1042.25 423.75C1042.46 424.52 1042.65 425.3 1042.89 426.07C1043.13 426.86 1043.39 427.65 1043.68 428.43C1044.8 431.42 1045.78 432.1 1048.83 432.02C1052.01 431.93 1051.92 431.96 1052.87 434.98C1054.46 440.04 1056.14 445.07 1057.85 450.09C1058.28 451.34 1058.89 452.54 1059.54 453.7C1061.53 457.27 1062.6 457.71 1066.3 455.71C1071.26 453.03 1076.08 450.08 1080.95 447.22C1083.13 445.94 1083.25 445.96 1083.72 448.36C1084.5 452.28 1085.51 453.22 1089.37 454.09C1090.61 454.37 1091.79 455.01 1092.92 455.63C1095.75 457.18 1096.62 457.17 1099.17 455.04C1100.19 454.19 1100.97 453.03 1102.05 452.28C1102.75 451.79 1103.94 451.37 1104.63 451.64C1108.29 453.07 1110.45 450 1113.23 448.91C1114.34 448.48 1114.74 447.2 1114.1 445.9C1113.88 445.46 1113.78 444.96 1113.63 444.48C1111.77 438.43 1111.79 438.5 1117.83 436.1C1120.12 435.19 1122.33 434 1124.42 432.69C1125.33 432.12 1126.21 431 1126.44 429.99C1126.66 429.03 1126.32 427.49 1125.63 426.9C1125.02 426.38 1123.26 426.38 1122.59 426.9C1119.36 429.4 1115.72 431.28 1111.82 431.83C1103.31 433.03 1094.79 433.89 1086.14 431.89C1073.34 428.93 1061.42 424.19 1050.94 416.21C1045.94 412.4 1040.64 408.87 1037.23 403.34C1031.33 393.76 1029.28 383.45 1031.4 372.36C1033.25 362.63 1036.71 353.54 1042.01 345.15C1047.84 335.94 1055.9 329.14 1065.25 323.82C1076.32 317.52 1088.14 313.3 1100.89 312C1106.16 311.46 1111.44 311.06 1116.72 310.59L1116.73 310.6ZM1058.09 349.08C1063.64 348.3 1068.95 345.77 1073.31 341.51C1074.42 340.42 1075.03 338.65 1075.46 337.08C1076.15 334.57 1074.5 331.94 1071.92 331.4C1070.5 331.1 1068.82 330.95 1067.5 331.42C1064.24 332.59 1060.89 333.8 1058 335.66C1055.08 337.53 1052.62 340.13 1052.72 344.15C1052.8 347.52 1054.22 349.05 1058.08 349.1L1058.09 349.08ZM1178.34 419.15C1179.08 421.99 1179.56 424.94 1180.63 427.64C1181.87 430.76 1185.05 431.71 1187.48 430.09C1190.63 427.99 1192.01 423.92 1190.79 420.16C1190.38 418.91 1189.91 417.68 1189.37 416.48C1188.08 413.61 1186.19 411.28 1182.78 411.35C1180.45 411.4 1178.78 414.91 1178.33 419.15H1178.34ZM1061.69 359.2C1061.75 356.3 1060.17 354.17 1058.02 354.26C1055.79 354.36 1052.02 357.52 1051.87 359.42C1051.69 361.74 1053.94 363.86 1056.77 364.03C1059.82 364.22 1061.62 362.45 1061.69 359.19V359.2Z" fill="white"/>
<path d="M963.66 91.8899C964.96 102.53 961.07 112.17 956 121.5C953.37 126.35 949.66 129.95 944.34 131.75C934.19 135.18 924.01 137.26 913.12 135.37C906.55 134.23 900.57 132.02 895.05 128.66C886.01 123.17 880.79 114.99 879.68 104.35C879.34 101.14 878.17 99.2899 876.61 99.3799C875.02 99.4699 873.86 101.67 873.71 104.52C873.37 110.81 875.94 116.22 878.98 121.39C880.12 123.34 880.66 125.17 880.86 127.4C881.65 136.12 882.49 144.85 883.74 153.51C884.41 158.15 886.53 158.94 890.75 157.01C891.96 156.46 893.13 155.81 894.32 155.22C900.43 152.19 906.42 153.72 910.26 159.28C910.54 159.69 910.71 160.18 911.01 160.57C914.15 164.62 917.08 164.82 921.28 161.8C923.1 160.49 924.25 158.27 925.77 156.52C927.34 154.71 928.58 154.95 929.24 157.3C929.64 158.71 929.52 160.26 929.78 161.72C930.46 165.62 931 169.57 932.06 173.37C932.51 174.99 933.84 176.64 935.22 177.67C938.78 180.34 943.02 179.13 944.5 174.92C945.59 171.83 946.07 168.51 946.63 165.25C947.14 162.32 947.23 159.32 947.78 156.4C948.43 152.96 949.63 152.12 953.27 151.99C953.77 151.97 954.27 152.02 954.77 151.98C956.22 151.86 958.74 151.25 958.93 151.67C959.62 153.24 959.67 155.14 959.73 156.92C959.96 163.24 959.57 169.48 957.84 175.65C956.34 181 953.6 185.63 951.04 190.48C945.55 200.92 935.41 204.94 925.93 209.85C918.45 213.73 910.06 214.14 901.85 215.25C895.71 216.08 889.6 216.22 883.47 216.04C871.11 215.67 859.18 213.3 847.78 208.24C842.6 205.94 837.44 203.67 832.95 200.18C827.06 195.6 821.16 191.01 816.83 184.76C816 183.56 815.67 182.57 816.12 181.11C818.12 174.65 817.79 167.97 817.65 161.33C817.53 155.52 814.38 151.11 807.8 150.16C807.14 150.07 806.46 150.1 805.81 149.96C800.84 148.86 798.31 146.35 797.75 141.29C797.19 136.36 796.6 131.37 796.76 126.43C797.3 110.45 799.4 94.6799 806.29 80.0299C813.69 64.2999 824.59 51.7299 840.35 43.6099C849.01 39.1499 858 35.7099 867.55 34.3699C874.34 33.4199 881.3 31.6299 888.26 33.8799C889.02 34.1299 889.92 33.9999 890.75 33.9699C901.33 33.6899 911.43 36.3099 921.51 39.0699C930.07 41.4099 938.03 45.1099 945.45 49.9299C949.92 52.8299 954.44 55.8999 956.83 60.8199C958.84 64.9699 960.24 69.4299 961.68 73.8299C963.56 79.5599 964.24 85.4899 963.67 91.8399L963.66 91.8899ZM802.85 105.24C802.85 106.4 802.69 107.59 802.88 108.72C803.67 113.37 807.01 115.27 811.24 113.18C813.56 112.03 815.84 110.43 817.56 108.52C821.28 104.37 822.86 99.0399 824.5 93.8299C824.74 93.0699 824.66 92.1799 824.61 91.3499C824.33 87.0799 821.23 85.0399 817.35 86.8799C812.68 89.0999 808.53 92.0399 805.51 96.4299C803.65 99.1299 802.61 101.97 802.85 105.24V105.24ZM940.32 55.3899C936.86 55.4199 934.08 58.9299 935 62.1799C936.02 65.7999 937.63 69.2599 939.06 72.7499C940.68 76.7199 944.24 78.6599 947.76 80.4599C948.77 80.9799 950.43 80.9299 951.51 80.4699C953.79 79.5199 955.8 74.3899 955.11 71.9299C953.44 65.9999 949.93 61.2299 945.28 57.3699C943.86 56.1899 941.71 55.9099 940.33 55.3799L940.32 55.3899ZM813.44 75.2699C813.93 76.3499 814.33 77.7999 815.19 78.8799C815.63 79.4299 817.13 79.7599 817.75 79.4299C822.65 76.8499 826.82 73.3599 829.82 68.6399C831 66.7799 830.92 64.9299 829.3 63.1899C827.3 61.0399 826.46 60.7599 823.67 62.1299C818.31 64.7699 814.79 68.8799 813.44 75.2699V75.2699ZM840.61 85.0899C841.21 84.7699 842.86 84.2799 843.93 83.2099C846.71 80.4099 848.02 76.7699 848.54 72.9499C848.94 70.0199 847.17 67.4499 844.71 66.6399C842.97 66.0699 839.57 67.4799 838.51 69.7399C837.05 72.8699 835.73 76.1299 834.95 79.4799C834.21 82.6699 836.48 85.0499 840.62 85.0899H840.61ZM952.64 97.7799C952.61 94.3899 951.46 91.1599 949.38 88.6299C947.61 86.4599 944.31 85.4499 942.27 86.4399C940.51 87.2999 939.21 90.4299 939.94 93.0299C940.6 95.3999 941.61 97.6999 942.68 99.9299C944.36 103.41 946.9 104.77 949.7 103.93C951.84 103.29 952.68 101.53 952.64 97.7699V97.7799ZM839.33 60.1299C843.62 59.1699 847.95 57.7799 851.18 54.0999C853.28 51.6999 852.79 48.9599 849.8 47.7899C848.34 47.2199 846.38 46.8299 845.02 47.3499C841.66 48.6299 838.4 50.2999 835.33 52.1799C833.65 53.2099 832.27 55.2899 833.11 57.2399C833.61 58.4099 835.66 58.9499 837.07 59.6699C837.63 59.9599 838.34 59.9399 839.33 60.1299ZM925.3 65.1899C922.47 65.1299 919.95 67.6799 919.74 70.3399C919.43 74.2499 921.16 76.9099 925.27 78.8599C929.01 80.6299 932.58 78.3499 932.09 74.2799C931.71 71.0699 930.05 68.3199 927.61 66.1799C926.91 65.5699 925.83 65.3999 925.3 65.1799V65.1899Z" fill="white"/>
<path d="M152.44 212.24C138.15 212.54 123.86 212.95 109.57 213.1C99.6 213.21 89.8 211.46 80.01 209.73C78.71 209.5 77.38 209.4 76.1 209.09C68.76 207.32 62.29 204.35 59.01 196.87C56.99 192.27 55.57 187.55 55.64 182.45C55.72 177.12 55.42 171.77 55.72 166.45C56.06 160.35 56.96 154.29 57.43 148.19C57.69 144.88 57.65 141.53 57.59 138.2C57.42 128.13 59.41 118.43 62.59 108.94C63.17 107.22 63.87 105.49 64.78 103.93C67.18 99.81 69.99 98.81 74.76 99.87C79.6 100.95 84.47 101.89 89.36 102.75C90.22 102.9 91.35 102.56 92.1 102.07C93.95 100.86 93.93 99 91.91 98.28C89.13 97.29 86.16 96.83 83.27 96.15C79.09 95.17 74.84 94.56 71.08 92.11C65.71 88.61 61.77 84.15 60.05 77.88C59.31 75.16 58.39 72.48 57.81 69.73C57.6 68.72 58.12 67.55 58.31 66.45C59.38 66.81 60.71 66.91 61.46 67.61C62.47 68.56 63.18 69.91 63.75 71.21C65.49 75.15 66.71 79.37 68.86 83.06C71.37 87.36 74.88 90.78 82.33 88.3C86.72 86.84 86.74 86.92 89.6 90.41C92.98 94.54 94.66 94.93 99.47 92.67C103.67 90.7 105.23 91.67 105.71 96.51C106.02 99.64 106.29 102.77 106.79 105.87C107.02 107.3 107.51 108.82 108.31 110.02C111.4 114.64 116.79 115.13 121.83 111.3C126.28 107.91 128.8 103.31 129.57 97.81C130.08 94.21 130.45 90.57 130.62 86.94C130.72 84.77 131.57 83.92 133.66 84.06C134.66 84.13 135.67 84.17 136.66 84.06C139.77 83.71 141.58 84.9 142.62 87.98C143.87 91.7 146.08 92.1 148.81 89.41C149.62 88.61 150.26 87.61 150.89 86.63C151.95 84.96 153.34 84.13 155.4 84.04C160.18 83.83 160.3 83.89 162.39 88.33C163.23 90.11 164.28 91.87 165.58 93.33C167.6 95.59 169.96 96.69 173.1 94.94C175.13 93.81 175.64 94.24 175.71 96.67C175.83 100.51 176.13 104.21 178.37 107.59C179.69 109.58 181.28 111.01 183.57 110.8C186.3 110.54 188.77 109.38 189.48 106.3C189.96 104.21 190.23 102.08 190.61 99.97C191.17 96.88 191.76 93.81 192.31 90.72C192.77 88.12 194.53 87.2 196.92 87.05C197.09 87.04 197.26 87.02 197.42 87.05C203.92 88 207.93 84.91 210.15 79.09C211.03 76.8 212.75 75.7 214.94 75.18C221.92 73.51 228.55 70.89 235.05 67.92C235.63 67.65 236.3 67.58 236.93 67.41C236.95 68.16 237.14 68.95 236.97 69.65C236.26 72.71 235.54 75.77 234.67 78.79C232.08 87.77 222.51 92.59 215.37 93.06C211.1 93.34 206.76 93.69 202.49 92.34C200.82 91.81 198.76 91.87 197.06 92.34C195.87 92.67 194.48 94 194.15 95.16C193.93 95.94 195.23 97.8 196.2 98.12C198.99 99.05 201.99 100.03 204.86 99.92C210.68 99.69 216.12 100.95 221.35 103.14C224.05 104.27 226.7 105.88 228.86 107.83C233.67 112.16 238.18 116.77 241.49 122.51C245.49 129.45 247.12 136.94 247.76 144.77C247.99 147.57 248.53 150.36 248.51 153.15C248.49 155.94 248.19 158.78 247.62 161.51C245.74 170.45 241.91 178.57 235.82 185.35C231.95 189.65 227.45 193.42 223.02 197.17C218.5 200.99 212.93 202.89 207.4 204.69C197.45 207.93 187.12 209.56 176.81 210.94C168.78 212.02 160.59 211.98 152.47 212.43C152.47 212.36 152.46 212.3 152.45 212.23L152.44 212.24ZM213.31 195.02C214 194.72 215.27 194.32 216.38 193.64C218.22 192.52 219.95 191.23 221.73 190.02C226.15 187.02 229.74 183.15 233.02 179C234.12 177.6 234.84 175.83 235.45 174.12C235.99 172.61 235.45 171.2 234.18 170.1C233.02 169.09 231.79 168.97 230.51 169.72C228.09 171.13 225.4 172.28 223.35 174.11C219.27 177.76 215.46 181.74 211.7 185.73C210.49 187.01 209.45 188.66 208.93 190.32C208.18 192.73 210.22 195.01 213.31 195.01V195.02ZM140.8 131.65C140.8 131.65 140.72 131.65 140.69 131.65C141.06 136.26 141.27 140.88 141.9 145.45C142.07 146.67 143.34 148.17 144.49 148.68C145.28 149.03 146.95 148.13 147.84 147.34C154.66 141.24 154.05 129.57 146.72 124.17C144.19 122.31 141.31 123.47 140.85 126.67C140.62 128.3 140.81 129.98 140.81 131.64L140.8 131.65ZM224.82 144.79C224.82 145.78 224.48 146.96 224.9 147.71C225.56 148.91 226.57 150.31 227.74 150.69C228.56 150.96 230.29 149.97 230.92 149.06C232.11 147.33 233.02 145.32 233.65 143.3C234.22 141.46 234.65 139.4 234.4 137.54C234.24 136.36 232.88 135.05 231.73 134.43C231.11 134.1 229.53 134.87 228.8 135.57C226.23 138.05 224.7 141.1 224.83 144.78L224.82 144.79ZM240.88 152.25C240.44 151.54 240.03 150.01 239.1 149.58C238.14 149.14 236 149.31 235.57 149.99C233.73 152.84 232.16 155.91 230.92 159.06C230.62 159.82 231.73 161.55 232.65 162.23C233.29 162.7 234.89 162.46 235.72 161.97C239.11 159.94 240.28 156.57 240.88 152.25V152.25ZM215.7 163.93C215.65 166.67 217.28 167.82 219.85 166.86C221.95 166.07 223.95 162.55 223.54 160.35C223.04 157.7 220.55 156.71 218.34 158.32C216.46 159.7 215.74 161.66 215.7 163.93V163.93Z" fill="white"/>
<path d="M620.08 438.74C601.83 438.01 584.04 435.59 566.85 429.32C556.91 425.7 547.95 420.52 539.79 413.81C537.16 411.64 536.27 408.62 535.08 405.75C530.75 395.32 528.73 384.44 529.71 373.15C530.53 363.75 533.36 354.87 538.46 346.95C547.49 332.94 559.93 323.2 575.83 317.81C582.03 315.71 588.3 313.91 594.75 314.2C605.81 314.71 616.84 315.71 627.57 319.05C635.52 321.53 643.43 324.03 650.71 328.1C653.73 329.78 656.43 332.03 659.26 334.05C659.8 334.43 660.2 335 660.73 335.4C663.08 337.17 665.01 337.37 666.06 336C667.19 334.52 667.01 331.79 665.15 330.15C662.42 327.75 659.55 325.46 656.46 323.57C653.5 321.76 650.21 320.46 647.01 319.08C645.64 318.49 644.68 317.75 644.67 316.22C644.67 313.56 644.52 310.86 644.87 308.24C645.3 305.04 646.58 304.14 649.96 304.06C652.62 304 655.3 304.13 657.96 304.02C664.75 303.74 671.54 303.39 678.33 303.04C685.37 302.68 690.62 306.19 694.31 311.57C698.34 317.44 701.61 323.9 702.84 331.04C703.48 334.76 704.06 338.7 703.54 342.38C702.7 348.41 702 354.61 698.75 360.02C697.87 361.48 698.25 362.77 698.59 364.27C699.93 370.25 701.08 376.24 700.8 382.46C700.4 391.68 698.31 400.44 694.86 408.97C692.84 413.97 690.12 418.44 686.73 422.57C684.66 425.1 682 426.81 678.98 427.85C668.16 431.6 657.22 434.91 645.78 436.13C637.23 437.05 628.66 437.85 620.1 438.7L620.08 438.74ZM607.2 370.09C602.87 370.2 599.67 370.05 596.47 371.61C591.81 373.89 591.89 377.68 594.34 380.98C595.29 382.27 596.68 383.32 598.06 384.18C602.62 387.06 607.74 388.54 613.03 388.9C616.43 389.13 620.01 388.82 623.29 387.94C628.33 386.59 629.9 380.4 626.4 376.46C625.23 375.14 623.63 374.07 622.02 373.31C617.02 370.93 611.73 369.78 607.2 370.1V370.09ZM680.47 324.01C681.3 324.01 682.14 324.11 682.95 323.99C685.23 323.64 688.16 320.58 688.44 318.16C688.73 315.61 687.2 314.08 685.03 313.3C681.95 312.19 678.84 310.93 675.64 310.45C673.24 310.09 670.55 310.89 669.22 313.34C667.9 315.77 669.3 317.86 670.87 319.62C673.4 322.45 676.57 324.1 680.47 324.01V324.01ZM623.74 367.89C624.22 368.55 624.93 370.42 626.29 371.23C629.07 372.9 632.14 374.14 635.19 375.27C636.95 375.92 639.26 374.66 640.13 372.95C640.95 371.32 640.71 369.81 639.47 368.39C636.07 364.53 631.8 362.81 626.72 363.17C624.45 363.33 623.64 364.45 623.75 367.9L623.74 367.89ZM557.63 400.66C557.66 396.21 555.51 393.2 552.28 393.15C549.26 393.1 546.8 395.93 546.78 399.48C546.75 403.11 549.81 406.16 553.36 406.05C556.27 405.95 557.61 404.26 557.64 400.66H557.63ZM614.82 348.65C614.77 348.81 614.71 348.96 614.66 349.12C613.67 349.12 612.67 349.02 611.69 349.14C608.54 349.54 607.12 352.72 608.86 355.37C611.04 358.69 617.7 359.81 620.81 357.38C623.32 355.41 623.41 352.53 620.68 350.83C618.95 349.75 616.79 349.35 614.82 348.65ZM637.5 390.16C635.83 390.16 635.33 390.16 634.83 390.16C632.93 390.16 631.64 391.17 631 392.84C630.33 394.59 631.07 396.03 632.39 397.29C634.27 399.08 637.3 399.63 639.76 398.49C642.9 397.04 643.46 394.02 640.8 391.79C639.62 390.81 637.98 390.38 637.51 390.16H637.5ZM548.55 378.61C548.53 376.95 546.54 375.1 544.95 375.27C543.34 375.44 541.77 377.32 541.77 379.09C541.77 380.95 543.47 382.91 544.97 382.78C546.56 382.64 548.57 380.29 548.55 378.61V378.61Z" fill="white"/>
<path d="M487.86 398.47C482.91 398.02 477.87 398.06 473.05 397.02C463.93 395.06 456.13 391 453.22 381.11C452.9 380.01 452.86 378.83 452.62 377.7C452.39 376.57 452.23 375.39 451.76 374.36C451.08 372.87 450.3 371.15 448.22 371.49C446.56 371.77 444.57 374.78 444.86 376.54C446.29 385.31 449.11 393.33 457.2 398.31C460.43 400.3 463.68 402.32 467.09 403.95C470.56 405.61 470.7 405.41 470.71 409.4C470.75 427.06 470.72 444.73 470.84 462.39C470.86 466.18 471.42 469.97 471.66 473.77C471.77 475.43 472 477.16 471.66 478.75C471.33 480.27 470.68 482.03 469.58 483.02C463.39 488.61 456.08 491.79 447.81 493.19C441.18 494.31 434.53 494.45 427.94 493.99C416.81 493.23 405.93 491.08 396.29 484.89C395.59 484.44 394.99 483.83 394.27 483.43C392.56 482.48 392.37 481.34 393.54 479.79C398.29 473.44 401.31 466.29 402.97 458.57C403.38 456.64 403.45 454.64 403.71 452.68C404.06 450.03 402.76 448.17 400.77 446.76C395.56 443.07 391.41 438.37 387.41 433.44C385.36 430.92 384.64 428.33 384.66 425.19C384.75 413.53 384.66 401.86 384.73 390.2C384.75 387.46 384.2 385.04 382.97 382.56C378.95 374.44 376.32 365.94 376.65 356.73C376.86 350.77 376.01 344.75 377.67 338.87C378.66 335.37 379.58 331.83 380.78 328.4C381.68 325.81 383.78 325.15 385.85 326.87C387.48 328.22 388.9 329.95 390.02 331.75C391.96 334.84 393.48 338.2 395.38 341.31C400 348.87 402.54 348.45 407.65 342.38C411.37 337.96 414.18 332.79 417.71 328.2C419.49 325.88 421.97 324.1 424.15 322.1C425.68 320.69 427.06 321.02 428.54 322.33C429.9 323.53 431.44 324.54 432.94 325.59C437.13 328.51 438.23 333.3 435.63 337.72C432.85 342.44 429.68 346.96 428.51 352.45C428.24 353.74 427.92 355.02 427.75 356.33C427.56 357.8 428.08 359.23 429.62 359.34C430.49 359.4 431.83 358.54 432.27 357.72C433.52 355.39 434.5 352.9 435.44 350.42C438.86 341.46 444.98 334.52 452.14 328.45C456.84 324.47 462.21 321.44 467.94 319.09C473.23 316.92 478.76 316.52 484.35 316.57C489.16 316.61 493.98 316.78 498.79 317.01C508.12 317.46 516.27 320.76 522.69 327.65C524.09 329.15 525.24 331.19 525.74 333.18C528.14 342.77 528.54 352.48 526.94 362.27C526.06 367.65 525.6 373.1 524.73 378.48C523.37 386.89 518.92 392.65 510.51 395.36C503.1 397.75 495.56 398.14 487.88 398.45L487.86 398.47ZM500.56 322.16C497.32 322.06 494.74 323.65 493.28 326.38C491.79 329.16 493.69 331.4 495.54 333.41C498.56 336.69 502.61 338.39 506.63 339.75C510.84 341.19 514.96 336.33 513.81 332.01C511.96 325.04 508.06 323.26 500.57 322.16H500.56ZM483.68 327.61C483.69 324.96 482.61 324.04 479.56 324.11C476.77 324.17 475.79 325.02 475.71 327.43C475.63 329.81 477.3 331.93 479.26 331.93C481.62 331.93 483.67 329.93 483.68 327.62V327.61Z" fill="white"/>
<path d="M885.67 429.09C885.67 416.09 885.63 403.1 885.71 390.1C885.73 387.36 885.11 384.95 883.9 382.48C879.92 374.35 877.29 365.85 877.62 356.64C877.84 350.68 876.92 344.63 878.68 338.79C880.11 334.04 881.71 329.34 883.45 324.69C884.58 321.67 887.05 319.99 890.19 319.36C896.52 318.09 902.8 316.97 909.37 316.9C919.42 316.8 927.81 320.3 935.38 326.45C938.08 328.64 938.75 334.06 936.82 337.48C934.78 341.09 932.44 344.57 930.73 348.33C929.6 350.83 929.28 353.71 928.75 356.46C928.46 357.95 929.21 359.32 930.72 359.37C931.59 359.4 932.9 358.47 933.33 357.62C936.01 352.31 940.03 348.22 944.63 344.61C945.41 344 946.2 343.36 947.07 342.92C949.8 341.52 950.82 342.08 951.8 344.97C952.59 347.29 953.33 349.74 954.66 351.74C958.77 357.89 967.19 357.26 970.4 350.58C971.76 347.75 972.42 344.6 973.7 341.73C974.84 339.19 976.18 336.67 977.87 334.47C979.31 332.6 980.78 332.95 981.57 335.07C982.14 336.61 982.51 338.26 982.7 339.89C983.15 343.67 983.1 347.54 983.9 351.23C984.55 354.26 985.74 357.33 987.39 359.94C989.75 363.68 994.67 365.51 999.66 362.33C1002.29 360.66 1004.6 358.32 1005.24 354.96C1006.08 350.58 1006.86 346.18 1007.7 341.8C1008.11 339.69 1008.45 337.55 1009.11 335.52C1009.52 334.25 1010.69 333.73 1011.88 334.77C1013.13 335.86 1014.22 337.14 1015.46 338.25C1018.57 341.02 1022.05 342.9 1026.35 341.62C1028.36 341.02 1028.79 341.92 1028.71 343.51C1028.42 349.8 1029.3 356.1 1027.98 362.4C1026.86 367.72 1026.62 373.22 1025.72 378.6C1024.31 387 1019.79 392.69 1011.4 395.41C1006.1 397.13 1000.69 397.49 995.29 398C991.33 398.37 987.3 398.15 983.3 398.06C974.73 397.85 966.53 396.26 959.21 391.42C958.03 390.64 956.53 389.43 955.31 391.27C954.28 392.84 954.51 394.63 956.05 395.73C957.79 396.97 959.73 397.97 961.69 398.85C964.11 399.93 966.63 400.79 969.12 401.72C970.89 402.38 971.83 403.55 971.74 405.49C971.7 406.49 971.74 407.49 971.74 408.49C971.77 426.32 971.74 444.14 971.86 461.97C971.89 465.93 972.44 469.88 972.69 473.85C972.79 475.51 973.03 477.25 972.67 478.83C972.33 480.34 971.62 482.06 970.51 483.06C964.32 488.66 956.99 491.78 948.73 493.19C942.26 494.29 935.79 494.4 929.36 493.99C917.01 493.2 905.09 490.67 894.75 483.17C891.3 480.66 888.59 477.56 886.68 473.85C885.89 472.32 885.74 470.34 885.73 468.56C885.66 455.4 885.69 442.24 885.69 429.07H885.7L885.67 429.09ZM1006.41 375.72C1004.2 376.2 1002.44 376.62 1000.67 376.97C997.8 377.54 996.31 379.61 995.98 382.17C995.65 384.66 997.35 386.5 999.38 387.86C1004.46 391.27 1010.92 389.34 1014 386.2C1016.91 383.24 1016.41 379.42 1012.71 377.68C1010.67 376.72 1008.36 376.31 1006.41 375.72ZM1020.68 367.17C1020.74 364.04 1019.3 362.29 1016.51 362.12C1013.94 361.96 1011.73 364.15 1011.85 366.73C1011.96 369.15 1013.83 370.96 1016.33 371.06C1019.57 371.19 1020.62 370.25 1020.68 367.16V367.17ZM991.09 377.02C993.68 377.05 994.73 375.98 994.65 373.39C994.58 371.08 993.6 370.12 991.25 370.09C988.68 370.05 987.62 371.13 987.69 373.72C987.76 376.05 988.73 376.99 991.08 377.02H991.09Z" fill="white"/>
<path d="M335.77 118.85C335.77 123.68 335.75 128.51 335.77 133.34C335.8 139.7 336.11 139.09 329.72 139.18C322.07 139.28 314.54 138.22 306.97 137.3C297.86 136.19 289.04 134.01 280.42 131.1C275.89 129.57 271.62 127.24 267.29 125.17C265.07 124.11 262.56 123.24 260.87 121.58C258.31 119.05 256.23 115.98 254.17 112.99C250.61 107.83 251.85 102.2 252.95 96.66C253.73 92.77 254.76 88.93 255.63 85.05C256.78 79.9 259.21 75.43 262.71 71.52C265.92 67.94 269.01 64.21 272.44 60.86C286.79 46.83 303.81 37.64 323.42 33.31C324.7 33.03 326.07 33.07 327.39 33.06C332.39 33.04 337.39 33.11 342.38 33.06C353.98 32.93 365.01 35.44 375.8 39.59C388.38 44.43 398.71 52.36 407.38 62.42C415.18 71.46 420.28 82.08 423.63 93.52C424.65 97.01 425.4 100.58 426.21 104.13C427.94 111.74 425.87 117.06 419.39 121.27C412.07 126.02 403.9 128.88 395.55 131.08C387.08 133.32 378.5 135.14 369.9 136.85C365.86 137.65 361.68 137.76 357.56 138.18C354.44 138.5 351.32 138.98 348.19 139.08C344.8 139.19 344.71 139 344.61 135.87C344.27 124.91 343.97 113.96 343.66 103C343.63 102 343.72 100.99 343.6 100C343.3 97.68 341.76 96.22 339.73 96.18C337.69 96.14 336.08 97.59 335.75 99.87C335.61 100.85 335.69 101.87 335.69 102.86C335.69 108.19 335.69 113.52 335.69 118.85H335.75H335.77ZM269.7 91.63C269.7 95.35 270.72 97.51 272.5 97.79C274.65 98.12 276.28 97.03 277.53 95.31C279.07 93.18 280.85 91.18 282.13 88.9C283.72 86.06 285.78 83.34 285.64 79.79C285.52 76.82 284.02 75.55 281.15 76.24C280.25 76.46 279.39 77.08 278.64 77.68C274.93 80.63 272.72 84.71 270.5 88.76C269.89 89.87 269.81 91.25 269.71 91.64L269.7 91.63ZM396.84 70.21C396.36 74.98 398.79 77.58 399.96 80.63C401.14 83.69 403.61 85.2 406.41 86.43C407.75 87.02 408.92 87.14 410.09 86.11C411.32 85.02 411.78 83.84 411.23 82.14C409.5 76.82 406.66 72.26 402.57 68.44C401.34 67.29 399.94 66.66 398.59 67.76C397.58 68.58 397.02 69.94 396.84 70.2V70.21ZM348.79 120.97C348.79 122.8 348.67 123.48 348.81 124.12C349.47 127.19 350.2 130.2 352.6 132.53C354.54 134.41 356.83 134.46 359.04 133.7C361.27 132.94 360.73 130.71 360.65 128.96C360.44 124.47 358.23 120.76 355.45 117.47C353.35 114.98 349.75 116.02 348.92 119.18C348.68 120.12 348.78 121.15 348.79 120.97V120.97ZM290.64 62.46C290.49 59.53 288.27 57.69 286.2 58.47C281.65 60.18 277.56 62.66 274.86 66.87C274.07 68.1 273.26 69.49 274.32 71.01C275.26 72.36 278.05 73.16 279.67 72.56C280.13 72.39 280.63 72.21 281 71.9C283.78 69.59 286.6 67.31 289.27 64.88C290.04 64.17 290.37 62.97 290.65 62.46H290.64ZM320.5 130.32C321.29 131.3 322.11 133.27 323.25 133.48C324.47 133.71 326.6 132.62 327.27 131.49C329.17 128.24 330.56 124.69 332.07 121.23C332.88 119.38 331.95 118.07 330.46 117.06C328.87 115.98 327.29 116.83 326.53 117.94C324.6 120.78 323.02 123.85 321.4 126.89C320.95 127.73 320.89 128.76 320.49 130.32H320.5ZM393.11 73.19C391.78 70.2 390.57 67.14 389.03 64.27C388.56 63.39 387.23 62.81 386.18 62.45C383.84 61.65 381.21 64.02 382.02 66.34C383.1 69.45 384.37 72.54 386.04 75.36C386.74 76.54 388.6 77.37 390.07 77.64C391.38 77.88 392.7 75.37 393.11 73.2V73.19ZM322.9 110.89C322.16 109.93 321.42 108.38 320.19 107.66C319.63 107.33 317.96 108.49 317.05 109.27C314.1 111.8 313.76 115.57 312.84 119.01C312.41 120.63 313.68 121.78 314.99 122.58C316.36 123.41 317.44 122.69 318.51 121.77C321.69 119.05 321.81 115.14 322.9 110.89V110.89ZM322.66 101.84C322.98 102.39 323.42 104.15 324.45 104.63C325.57 105.15 328.04 105.01 328.53 104.26C330.21 101.67 331.7 98.79 332.44 95.82C333 93.58 329.93 91.4 328.19 92.54C325.2 94.49 322.81 97.02 322.66 101.85V101.84ZM346.76 107.59C346.76 109.76 348.27 111.77 349.99 111.92C351.76 112.08 353.59 110.07 353.57 108C353.54 105.31 351.75 103.09 349.67 103.16C347.88 103.23 346.75 104.95 346.76 107.59ZM306.38 126.18C306.38 124.56 304.06 122.84 302.49 123.3C300.08 124.01 297.94 127.77 298.94 130.05C299.3 130.87 300.57 131.74 301.47 131.79C303.24 131.88 306.39 128.02 306.39 126.18H306.38ZM401.68 95.17C401.67 92.45 399.9 90.32 397.73 90.4C396.56 90.44 395.01 92.55 394.99 94.13C394.96 96.82 396.76 99.08 398.88 99.02C400.86 98.96 401.69 97.83 401.68 95.18V95.17Z" fill="white"/>
<path d="M124.23 440.12C121.56 440.12 118.89 440.24 116.24 440.09C112.78 439.89 112.33 439.26 111.55 435.74C110.91 432.88 110.63 429.88 107.98 427.79C105.23 425.62 103.29 425.35 101.24 428.23C99.6598 430.45 98.5998 433.19 97.8698 435.85C96.8398 439.6 97.0698 439.5 93.2998 439.29C89.1498 439.06 84.9698 438.99 80.8098 439.16C70.6098 439.58 60.6498 437.77 50.7398 435.89C39.1698 433.7 27.7798 430.67 16.9098 426.01C13.8898 424.71 11.0698 422.88 8.27976 421.1C6.30976 419.84 5.78976 418.23 6.50976 415.6C8.42976 408.52 12.3798 402.63 16.5398 396.84C18.7798 393.73 22.4198 392.57 25.7798 391.15C32.1598 388.44 38.8398 387.56 45.7598 387.93C47.3798 388.02 50.3098 389.41 50.5198 386.13C50.6998 383.23 47.6998 383.73 46.0398 383.23C40.0198 381.42 33.8198 380.19 27.8598 378.23C17.1298 374.7 10.5498 366.94 6.93976 356.45C6.82976 356.14 6.77976 355.81 6.72976 355.48C5.37976 347.63 7.14976 346.23 14.7198 348.52C21.5298 350.58 28.4498 352.29 35.3698 353.91C37.0698 354.31 38.3498 354.65 39.4598 356.16C41.4198 358.82 43.7198 361.24 45.8998 363.74C49.0598 367.37 53.2698 368.31 57.3398 364.97C58.4898 364.02 59.9098 363.36 60.9298 362.3C64.6298 358.46 69.3098 358.81 73.9598 359.13C74.8098 359.19 75.6298 360.02 76.4098 360.56C76.6498 360.73 76.7198 361.14 76.8798 361.43C81.1898 369.09 82.8498 368.67 91.2198 367.63C93.4498 367.35 94.1998 367.24 94.9798 369.73C96.7998 375.61 101.82 376.77 106.51 372.78C106.76 372.56 106.95 372.24 107.24 372.1C107.8 371.83 108.42 371.66 109.01 371.46C109.18 372.06 109.52 372.66 109.49 373.25C109.3 377.38 108.89 381.51 108.82 385.64C108.72 391.69 112.81 395.4 117.08 398.54C120.17 400.81 125.67 398.18 127.73 393.75C128.98 391.06 130.19 388.17 130.51 385.28C131.15 379.34 134.69 374.87 137.42 369.98C138.27 368.45 139.83 367.37 141.61 368.6C143.71 370.05 145.76 369.15 147.84 368.86C148.81 368.72 149.76 368.13 150.72 368.14C155.8 368.17 158.59 364.9 160.47 360.93C161.61 358.53 162.9 357.45 165.52 356.94C170.87 355.91 176.13 354.4 181.4 352.98C183.09 352.52 183.91 352.7 183.81 354.68C183.72 356.51 183.71 358.35 183.81 360.18C184.12 365.5 181.38 369.08 177.02 371.4C171.55 374.31 165.53 375.56 159.38 376.15C155.92 376.48 152.47 376.83 149.01 377.17C148.51 377.22 147.88 377.13 147.55 377.39C146.42 378.31 145.39 379.36 144.32 380.35C145.38 381.04 146.35 382.01 147.52 382.36C149.07 382.83 150.76 382.93 152.4 383.01C157.69 383.26 163.03 382.56 168.26 384.08C172.63 385.36 176.45 387.31 179.86 390.53C186.4 396.71 191.34 403.79 194.39 412.26C195.99 416.71 195.1 420.29 191.15 422.86C180.76 429.63 169.61 434.44 157.21 436.18C149.2 437.31 141.24 438.85 133.23 439.96C130.29 440.36 127.25 440.03 124.25 440.03V440.13L124.23 440.12ZM174.31 406C175.31 406 176.34 406.17 177.29 405.97C181.32 405.11 183.11 400.43 180.46 397.47C176.79 393.37 169.77 390.12 163.43 392.13C159.84 393.27 158.82 395.42 160.93 398.45C164.14 403.06 168.77 405.41 174.3 406.01L174.31 406ZM150 396.02C152.26 396.08 154.08 394.65 154.18 392.73C154.28 390.85 151.57 388.3 149.57 388.39C147.77 388.47 144.87 390.64 144.79 391.96C144.66 394.17 146.93 395.94 150.01 396.02H150ZM178.57 413.12C176.16 412.97 174.87 413.94 174.78 415.94C174.7 417.74 176.32 419.53 178.08 419.59C179.77 419.65 181.57 417.92 181.62 416.17C181.67 414.27 180.65 413.24 178.57 413.12V413.12Z" fill="white"/>
<path d="M141.09 58.98C127.66 59.62 116.49 58.29 105.37 56.27C103.58 55.94 101.73 55.98 99.9399 55.68C89.8999 54.01 80.4999 50.28 71.2499 46.25C66.7099 44.27 62.5799 41.38 58.2699 38.88C56.3699 37.78 55.4499 36.14 55.6599 33.89C55.7399 33.06 55.7699 32.21 55.6399 31.39C54.4499 24.23 58.6099 19.94 63.8499 16.36C67.3799 13.95 70.9899 11.63 74.7399 9.59002C81.9499 5.65002 89.9199 3.88002 97.8499 2.08002C108.31 -0.279976 118.95 0.0500244 129.57 2.4406e-05C138.87 -0.0399756 148.07 0.730024 157.32 1.80002C167.53 2.98002 177.59 4.77002 187.62 6.84002C190.53 7.44002 193.58 7.39002 196.45 8.11002C211.84 11.97 223.97 20.26 231.47 34.58C233.4 38.27 232.78 40.47 229.12 42.33C225.58 44.13 221.87 45.65 218.17 47.11C206.86 51.56 195.03 54.09 183.08 56.02C178.84 56.7 174.51 56.74 170.23 57.18C164.97 57.72 159.74 58.61 154.47 58.92C149.33 59.22 144.15 58.99 141.09 58.99V58.98ZM81.1599 16.14C80.8099 16.2 79.8999 16.14 79.1899 16.48C73.5299 19.22 69.1199 23.41 65.5499 28.53C64.3299 30.27 65.1999 31.79 66.5599 32.88C68.0599 34.09 69.9499 34.58 71.6899 33.5C75.4799 31.14 79.3399 28.83 82.8099 26.05C84.2099 24.92 84.9699 22.69 85.4799 20.82C86.3299 17.65 84.9099 16.11 81.1499 16.14H81.1599ZM224.56 31.69C224.51 31.36 224.58 30.96 224.41 30.73C222.24 27.87 220.14 24.95 217.77 22.27C217.23 21.66 215.38 21.42 214.72 21.87C213.78 22.52 212.93 23.92 212.85 25.06C212.59 28.47 217 33.96 220.31 34.77C222.2 35.23 224.47 33.59 224.57 31.69H224.56ZM204.23 22.41C202.22 22.27 200.32 24.67 200.89 26.69C201.99 30.57 204.06 33.97 207.1 36.66C207.88 37.35 209.13 38.28 210.14 37.02C210.8 36.2 211.67 34.78 211.38 34.07C209.94 30.58 208.22 27.19 206.41 23.87C206 23.12 204.83 22.78 204.24 22.41H204.23ZM89.3499 26.11C84.8299 25.91 79.9499 33.53 82.1599 37.53C82.5599 38.25 84.4799 39.01 84.9399 38.69C88.0399 36.47 91.1499 34.1 92.3999 30.28C93.0599 28.27 91.3699 26.21 89.3499 26.11V26.11Z" fill="white"/>
<path d="M74.6798 281.07C81.3898 281.07 86.2298 280.93 91.0498 281.11C95.1798 281.27 99.3098 281.65 103.4 282.2C109.45 283.01 115.47 284.03 121.5 285C125.58 285.66 129.64 286.4 133.72 287.07C141.72 288.39 149.65 289.85 157.33 292.69C164.54 295.36 170.39 299.89 175.89 304.91C179.58 308.27 180.55 313.27 181.63 317.94C182.31 320.89 180.26 324 177.34 325.03C169.21 327.91 160.93 330.23 152.31 331.17C144.59 332.01 136.92 333.32 129.19 333.92C123.23 334.38 117.21 334.05 111.21 334.11C109.24 334.13 108.71 333.07 108.63 331.28C108.54 329.31 108.34 327.31 107.84 325.41C107.02 322.35 104.55 320.22 102.45 320.38C100.34 320.54 97.6298 323.04 97.0498 325.72C96.6998 327.32 96.7398 329.02 96.7098 330.68C96.6798 332.33 95.9398 333.14 94.2698 333.1C92.9398 333.07 91.5498 333.33 90.2798 333.03C83.6998 331.49 77.0198 332.57 70.4098 332.08C64.8098 331.66 59.2498 330.49 53.6598 330.39C47.7298 330.28 42.0398 329.13 36.6798 327.01C28.0698 323.61 18.7598 321.83 11.0698 316.27C9.75981 315.33 8.60981 314.1 7.59981 312.84C6.58981 311.59 6.69981 310.2 7.36981 308.64C11.6398 298.58 18.8998 291.68 29.1698 288.08C37.7698 285.07 46.5498 282.93 55.6798 281.81C62.6798 280.95 69.6098 281.47 74.6798 281.06V281.07ZM33.9898 320.97C36.1698 321.01 38.0398 320.42 39.2298 318.62C40.2298 317.11 39.6298 315.19 37.4998 313.47C33.5198 310.24 29.3098 307.41 24.3298 305.8C22.1998 305.11 20.7598 305.78 19.4498 307.09C18.2698 308.27 18.4898 310.98 19.7698 312.59C23.4498 317.22 28.5998 319.36 33.9898 320.96V320.97ZM47.4498 304.14C46.7898 304.13 46.1398 304.13 45.4798 304.13C43.7298 304.13 42.1798 304.41 41.7798 306.52C41.3498 308.78 41.9798 310.53 44.2498 311.2C46.1898 311.77 48.4198 311.88 50.4298 311.57C52.4398 311.26 53.9298 308.74 53.4398 307.13C52.8598 305.22 51.4798 304.17 49.4198 304.15C48.7598 304.15 48.1098 304.15 47.4498 304.15V304.14Z" fill="white"/>
<path d="M534.62 506.25C533.9 498.32 536.88 491.09 541.75 484.46C542.74 483.11 543.56 481.6 545.68 482.19C547.8 482.79 549.26 484.09 549.54 486.27C549.79 488.24 549.56 490.27 549.76 492.25C549.99 494.54 550.16 496.91 550.89 499.07C552.97 505.23 558.41 507.58 564.45 505.17C570.69 502.68 570.58 502.69 570.78 509.36C570.92 513.99 571.13 518.65 571.88 523.2C572.23 525.31 573.55 527.59 575.11 529.09C577.82 531.7 581.41 531.57 584.33 529.54C587.43 527.38 590.39 524.8 591.59 520.91C592.61 517.58 593.54 514.23 594.6 510.91C595.21 509.01 595.99 508.87 597.33 510.22C597.68 510.57 598 510.96 598.3 511.36C603.23 517.69 611.96 517.79 616.83 511.22C619.48 507.66 621.39 503.55 623.62 499.68C624.2 498.68 624.73 497.66 625.29 496.65C626.54 494.38 626.68 494.31 627.9 496.61C628.92 498.54 630.36 499.59 632.42 500.16C634.82 500.82 635.7 502.56 635.83 505.04C635.99 508.16 636.21 511.34 637 514.34C638.11 518.59 642.43 520.74 646.63 516.66C649.56 513.82 651.64 510.54 652.64 506.54C653.2 504.3 653.95 502.09 654.77 499.93C655.3 498.54 656.24 498.21 657.93 498.56C663.74 499.78 665.85 498.61 668.03 493.28C669.15 490.53 670.41 487.74 669.02 484.64C668.37 483.19 668.97 482.04 670.29 481.29C672.88 479.81 675.46 478.3 678.1 476.91C680.51 475.64 681.14 475.59 682.38 478.31C684.42 482.8 686.25 487.46 687.47 492.23C688.44 496.03 688.43 500.1 688.74 504.05C689.55 514.58 685.45 523.48 679.54 531.81C677.1 535.25 673.87 537.6 670.5 540.11C661.11 547.11 650.33 550.13 639.18 551.88C632.18 552.98 624.92 553.4 617.85 552.94C606 552.16 594.1 551.42 582.46 548.59C578.95 547.74 575.2 547.88 571.67 547.1C555.51 543.52 543 535.25 536.32 519.43C534.56 515.27 534.59 511.03 534.63 506.23L534.62 506.25ZM665.56 532.04C669.02 532 672.82 528.54 673.96 524.58C674.56 522.5 673.87 521.06 671.93 520.35C669.02 519.29 662.81 521.25 661.51 524.14C660.78 525.75 660.79 528.03 661.29 529.78C661.82 531.64 663.78 532.26 665.57 532.04H665.56ZM549.72 524.39C549.67 528.42 551.79 530.95 555.34 531.1C558.39 531.22 560.63 529.23 560.52 526.48C560.41 523.43 556.76 519.52 553.94 519.42C551.44 519.33 549.76 521.31 549.72 524.4V524.39ZM546.51 509.18C544.59 509.27 542.79 511 543.01 512.56C543.29 514.55 546.12 517.02 547.86 516.8C549.13 516.64 550.61 514.68 550.63 513.15C550.65 510.96 548.7 509.08 546.51 509.18V509.18Z" fill="white"/>
<path d="M605.77 487.2C589.92 486.36 574.59 484.15 560.13 477.84C555.58 475.86 551.15 473.57 546.83 471.14C543.09 469.05 540.56 465.74 539.01 461.74C534.96 451.23 536.22 440.91 540.36 430.79C541.82 427.22 544.37 426.51 547.52 428.5C558.76 435.61 571.16 439.55 584.09 442.07C587.65 442.76 591.26 443.23 594.77 444.12C596.97 444.68 599.21 445.53 601.09 446.78C610.35 452.9 619.47 459.23 628.69 465.41C634.99 469.63 636.53 470.62 643.87 464.21C651.25 457.77 658.14 450.77 665.21 443.98C667.5 441.78 669.95 439.98 672.97 438.77C675.7 437.67 677.88 438.2 679.92 439.84C683.55 442.75 685.4 446.75 686.77 451.13C689.91 461.16 683.44 466.7 676.92 471.92C672.66 475.33 667.69 477.76 662.01 478.29C660.41 478.44 658.84 479.24 657.32 479.88C651.79 482.22 646.11 483.85 640.08 484.19C637.95 484.31 635.77 484.59 633.75 485.22C629.34 486.57 624.85 485.93 620.39 486.17C615.44 486.44 610.49 486.87 605.78 487.21L605.77 487.2Z" fill="white" fill-opacity="0.5"/>
<path d="M343.23 216.01C334.94 215.72 326.6 215.9 318.37 215.02C306.19 213.71 294.8 209.95 285.03 202.06C275.23 194.16 266.8 185.15 260.61 174.1C258.76 170.8 258.17 167.6 259.66 164.14C259.99 163.38 260.79 162.82 261.37 162.17C262.14 162.93 263.34 163.57 263.58 164.47C264.19 166.68 264.09 169.1 264.77 171.29C265.7 174.27 266.81 177.25 268.34 179.95C269.86 182.62 272.52 183.17 275.67 182.19C275.99 182.09 276.32 182.04 276.64 181.95C278.03 181.56 279.74 180.48 280.73 180.94C282.27 181.66 283.48 183.31 284.51 184.79C285.54 186.28 286.31 187.99 286.96 189.69C288.92 194.85 295.15 197.31 300.18 195.1C303.61 193.59 306.64 191.86 308.68 188.59C309.99 186.49 311.57 184.55 312.97 182.49C314.2 180.67 315.83 179.78 318.04 179.98C318.7 180.04 319.39 180.09 320.04 179.98C324.81 179.14 327.65 180.93 329.63 185.53C331.84 190.66 335.23 191.64 340.6 189.93C344.27 188.76 345.35 189.24 346.47 192.78C347.32 195.47 347.91 198.24 348.82 200.9C350.33 205.25 352.72 207.3 355.67 207.04C358.23 206.82 361.75 203.16 362.51 199.84C362.95 197.91 363.22 195.93 363.68 194C363.95 192.88 364.31 191.75 364.86 190.74C365.8 189 367.34 188.65 369.13 189.37C369.58 189.55 369.94 189.95 370.37 190.2C374.9 192.85 375.42 192.93 378.9 189.24C380.71 187.32 382.18 187.15 384.45 188.31C387.08 189.66 389.86 189.26 392.63 188.1C401.14 184.53 407.01 178.56 409.24 169.53C409.89 166.88 410.98 165.38 413.58 164.92C413.9 164.86 414.21 164.71 414.52 164.59C416.12 164.02 417.61 162.28 419.44 164.23C420.86 165.74 421.43 168.65 420.23 170.75C416.78 176.8 413.24 182.76 408.43 187.93C400.89 196.03 392.63 203.17 382.81 208.32C376.93 211.4 370.8 213.86 363.97 214.2C359.69 214.41 355.45 215.3 351.18 215.75C348.54 216.03 345.88 216.07 343.23 216.22C343.23 216.14 343.23 216.06 343.23 215.99V216.01Z" fill="white"/>
<path d="M104.07 493.31C86.6898 493.61 71.7298 493.88 56.7798 494.12C50.1798 494.23 43.9998 492.42 38.0298 489.78C29.7598 486.13 22.2998 481.15 15.5298 475.24C11.0998 471.37 7.94977 466.47 6.83977 460.49C6.49977 458.66 7.29977 458.07 8.93977 458.03C15.4598 457.85 21.8398 458.38 28.0598 460.63C30.1898 461.4 30.7998 462.47 30.8398 464.59C30.8798 466.71 31.1298 468.95 31.8998 470.9C32.8598 473.33 34.3098 475.49 36.9398 476.79C39.5998 478.11 41.9598 478.31 44.4698 476.72C45.8798 475.83 46.6498 476.64 47.0898 477.89C47.8098 479.91 48.2498 482.06 49.1998 483.96C51.6098 488.79 57.3298 489.74 61.2298 485.98C62.6498 484.61 63.7998 482.96 65.0298 481.4C66.9598 478.95 67.4698 478.82 70.3598 480.19C74.1898 482 76.5498 481.23 79.3798 477.7C81.0098 475.68 82.7998 473.63 84.9298 472.21C86.8298 470.95 89.3298 471.69 91.5898 471.64C97.0298 471.52 100.42 473.12 102.77 478.3C104.18 481.41 107.46 483.6 111.45 483.03C113.01 482.8 114.57 482.14 115.99 481.4C119.22 479.71 119.42 479.68 122.12 481.95C123.77 483.34 125.5 484.62 127.12 486.04C132 490.33 137.57 489.52 140.74 483.73C142.52 480.48 144.38 477.42 147.19 474.95C148.66 473.66 149.88 472.87 152.04 473.61C155.66 474.86 158.48 473.31 160.59 470.23C163.69 465.72 167.72 462.77 173.05 460.89C179.59 458.58 185.72 455.12 192.04 452.17C192.42 451.99 192.87 451.95 193.29 451.85C193.24 452.3 193.3 452.81 193.12 453.2C190.55 458.63 187.61 463.85 183.23 468.06C180 471.16 176.59 474.08 173.27 477.08C167.93 481.9 161.31 484.04 154.64 486.16C145.29 489.13 135.62 490.59 125.98 491.93C117.95 493.04 109.77 492.98 104.06 493.31H104.07ZM22.7098 475.05C22.9298 476.82 23.5798 478.75 25.6098 480.02C27.2398 481.04 28.7498 480.97 30.0898 479.68C31.3898 478.43 31.9798 476.84 30.6698 475.3C29.5298 473.97 28.2698 472.58 26.7598 471.76C24.3398 470.46 22.6698 471.76 22.7098 475.05V475.05Z" fill="white"/>
<path d="M333.68 174.14C330.02 174.14 326.34 174.32 322.69 174.11C305.24 173.09 288.17 170.25 272.5 161.97C268.44 159.83 264.78 156.87 261.13 154.04C257.14 150.94 255.42 146.33 254.03 141.71C252.42 136.37 255.1 133.25 260.78 132.98C265.23 132.77 268.21 134.53 270.84 138.08C276.28 145.41 282.39 152.18 289.76 157.71C291.35 158.9 292.6 160.51 294.08 161.86C296.05 163.67 298.13 164.39 300.86 163.15C306.78 160.46 312.23 157.05 317.21 152.93C320.88 149.89 324.56 147.55 329.72 147.91C333.14 148.15 335.3 149.3 336.72 152.36C338.27 155.69 340.89 155.94 343.03 153.04C343.71 152.12 344.07 150.95 344.7 149.98C346.9 146.56 351.22 145.88 353.97 148.91C357.41 152.69 360.47 156.84 363.63 160.87C364.95 162.56 366.18 164.33 367.35 166.13C369.34 169.19 368.33 171.58 364.85 172.11C362.41 172.48 359.96 172.93 357.51 173.1C349.58 173.64 341.64 174.07 333.7 174.55C333.7 174.42 333.68 174.28 333.67 174.15L333.68 174.14Z" fill="white" fill-opacity="0.5"/>
<path d="M115.32 354.14C107.99 354.14 102.5 354.27 97.0202 354.1C91.2402 353.92 85.4702 353.52 79.7102 353.05C78.7302 352.97 77.1202 352.09 77.0402 351.42C76.9102 350.34 77.4702 348.73 78.3102 348.06C81.1402 345.8 84.1802 343.78 87.2202 341.81C91.6202 338.95 96.5402 339.75 101.24 340.45C105.88 341.14 110.4 341.29 115.02 340.45C117.28 340.04 119.64 340.03 121.95 340.06C132.72 340.21 143.33 338.93 153.95 337.23C160.67 336.16 167.14 334.34 173.66 332.57C176.57 331.78 179.48 331.22 182 333.8C185.21 337.09 185.37 340.32 182.44 343.92C179.03 348.11 174.11 349.16 169.25 350.1C160.67 351.75 151.97 352.45 143.29 353.39C133.31 354.47 123.4 353.52 115.32 354.15V354.14Z" fill="white" fill-opacity="0.5"/>
<path opacity="0.75" d="M1025.56 37.0601C1027.17 37.4301 1028.88 37.5601 1030.37 38.2001C1035.25 40.2701 1040.3 42.0601 1044.17 45.9701C1044.98 46.7901 1045.95 47.4501 1046.87 48.1501C1051.12 51.3501 1054.38 55.1601 1055.07 60.7001C1055.54 64.4601 1056.17 68.2101 1056.68 71.9701C1056.74 72.4101 1056.45 72.9001 1056.33 73.3701C1055.83 73.0601 1055.11 72.8701 1054.87 72.4201C1053.46 69.7801 1052.17 67.0701 1050.81 64.4001C1048.43 59.7601 1047.61 59.4401 1043.28 62.1201C1041.6 63.1501 1041.04 62.9501 1040.63 61.0601C1039.92 57.8001 1038.92 54.7101 1036.4 52.2201C1034.53 50.3701 1032.6 49.5601 1030.14 50.4601C1028.83 50.9401 1027.79 51.1001 1026.4 50.3701C1022.9 48.5101 1020.48 49.4001 1018.9 52.9601C1018.23 54.4701 1017.98 56.1501 1017.34 57.6801C1016.83 58.9001 1015.76 58.9901 1015.04 57.9301C1014.22 56.7201 1013.66 55.3301 1013.06 53.9801C1011.95 51.4901 1010.37 49.9201 1007.36 50.0701C1004.42 50.2201 1002.69 51.9001 1001.84 54.3501C1000.03 59.5201 999.09 64.9101 998.78 70.3801C998.68 72.2101 998.74 74.0501 998.56 75.8601C998.51 76.4201 997.9 76.9201 997.55 77.4501C997.13 77.0501 996.55 76.7301 996.32 76.2501C995.96 75.5201 995.81 74.6801 995.63 73.8801C994.4 68.5501 993.35 63.1901 993.59 57.6601C993.65 56.3401 993.69 54.9401 993.31 53.7101C992.67 51.6301 991.69 49.6201 989.19 49.1701C987 48.7701 985.41 49.6401 984.03 51.4001C982.6 53.2201 981.54 53.1201 980.42 51.2201C979.84 50.2401 979.64 49.0401 979.11 48.0201C978.13 46.1501 977.53 44.0901 975.4 42.8801C973.66 41.8901 973.94 39.9501 975.92 39.2401C977.75 38.5801 979.77 38.1701 981.72 38.1401C990.05 38.0101 998.37 38.1001 1006.7 38.0501C1012.99 38.0101 1019.28 37.8601 1025.57 37.7601C1025.57 37.5401 1025.57 37.3101 1025.57 37.0901L1025.56 37.0601Z" fill="white"/>
<path opacity="0.75" d="M984.75 316.79C988.85 316.79 994.24 316.99 999.6 316.73C1004.56 316.49 1009.08 318.03 1013.3 320.06C1016.82 321.75 1019.9 324.44 1022.94 326.98C1023.92 327.8 1024.46 329.5 1024.59 330.86C1024.68 331.78 1023.89 333.01 1023.13 333.69C1022.84 333.95 1021.4 333.2 1020.69 332.64C1018.61 331.02 1016.83 328.93 1014.58 327.63C1009.68 324.8 1005.02 326.3 1002.63 331.46C1001.61 333.66 1001.23 336.18 1000.76 338.6C999.81 343.45 999.86 348.48 997.89 353.14C997.36 354.4 997.06 355.75 995.48 355.97C993.56 356.23 992.87 354.77 992.33 353.36C991.68 351.66 990.99 349.93 990.73 348.15C990.21 344.56 990.26 340.87 989.53 337.32C988.98 334.63 988.09 331.74 986.48 329.59C982.41 324.15 974.04 325.1 970.67 331.35C968.72 334.97 967.47 338.98 965.89 342.81C965.26 344.33 964.76 345.95 963.88 347.32C962.78 349.04 960.95 349.01 959.87 347.26C959.19 346.18 958.89 344.82 958.59 343.55C957.08 337.14 954.44 335.23 947.63 335.93C947.19 335.98 946.72 335.71 946.27 335.59C946.49 335.16 946.63 334.66 946.95 334.32C954.44 326.22 963.37 320.33 974.06 317.5C977.04 316.71 980.32 317.03 984.74 316.77L984.75 316.79Z" fill="white"/>
<path opacity="0.75" d="M310.83 344.5C310.65 345.5 310.37 347.62 309.86 349.68C309.56 350.89 308.5 350.73 308.14 349.83C306.35 345.4 303.69 341.25 303.63 336.25C303.61 334.75 303.74 333.23 303.54 331.76C302.87 326.83 298.73 324.98 294.5 327.64C293.94 327.99 293.27 328.23 292.81 328.69C291.22 330.29 290.14 329.38 289.25 327.98C288.34 326.55 288.89 325.87 290.39 324.96C299.73 319.3 309.8 316.66 320.69 316.98C323.35 317.06 326.02 317.04 328.68 316.99C340.46 316.77 351.22 320.28 361.4 325.91C361.83 326.15 362.35 326.34 362.65 326.7C362.92 327.02 363.17 327.63 363.04 327.95C362.91 328.28 362.23 328.65 361.91 328.57C361.12 328.37 360.39 327.91 359.64 327.57C355.94 325.89 353.41 326.71 351.62 330.4C350.83 332.02 350.11 333.79 349.89 335.56C349.35 339.99 349.28 344.48 348.7 348.9C348.18 352.82 347.27 356.68 346.41 360.54C346.26 361.21 345.53 361.75 345.06 362.34C344.66 361.62 344.04 360.95 343.9 360.19C343.39 357.43 343.09 354.63 342.64 351.86C341.69 345.98 340.74 340.12 338.71 334.47C337.73 331.75 336.34 329.57 333.34 329.28C330.21 328.98 327.98 330.64 326.57 333.42C326.19 334.16 325.85 334.93 325.42 335.63C324.65 336.89 323.96 336.74 323.39 335.44C322.1 332.5 319.67 331.7 316.81 332.3C313.59 332.98 311.53 335.15 310.9 338.35C310.58 339.95 310.84 341.66 310.84 344.48L310.83 344.5Z" fill="white"/>
<path d="M408.58 132.91C408.84 133.62 409.41 134.38 409.23 134.82C408.42 136.82 407.45 138.76 406.43 140.67C402.34 148.25 398.29 155.85 394.05 163.35C392.1 166.81 389.84 170.11 387.55 173.37C385.67 176.04 384.44 176.37 381.89 174.13C377.66 170.41 373.45 166.57 369.87 162.26C365.76 157.3 362.34 151.77 358.62 146.48C357.5 144.89 357.81 144.3 359.94 144.05C373.76 142.44 387.37 139.76 400.74 135.87C402.65 135.32 404.47 134.48 406.33 133.77C406.94 133.54 407.56 133.3 408.58 132.92V132.91Z" fill="white"/>
<path d="M101.02 466.26C93.4199 465.88 85.7799 465.91 78.2399 465.03C68.2899 463.86 58.31 462.64 48.56 460.14C46.96 459.73 44.97 459.6 44.81 457.56C44.64 455.35 46.75 455.27 48.28 454.71C56.05 451.88 63.82 449.06 71.5599 446.16C74.5899 445.02 77.71 445.01 80.87 445.02C87.99 445.047 94.2633 447.2 99.69 451.48C103.2 454.23 106.91 456.71 110.4 459.47C111.89 460.64 114.12 461.72 113.52 464.12C112.86 466.78 110.41 466.07 108.51 466.13C106.02 466.2 103.52 466.15 101.03 466.15C101.03 466.19 101.03 466.23 101.03 466.27L101.02 466.26Z" fill="white" fill-opacity="0.5"/>
<path opacity="0.75" d="M654.73 51.2999C653.56 50.8899 653.1 50.6799 652.62 50.5799C647.1 49.3699 644.51 50.9499 643.11 56.4099C642.87 57.3599 642.71 58.3799 642.76 59.3599C642.99 64.0699 641.77 68.5599 640.74 73.0799C640.59 73.7199 640.49 74.3999 640.22 74.9899C639.46 76.6499 638.67 78.8799 636.71 78.6699C635.59 78.5499 634.2 76.5499 633.8 75.1399C632.81 71.6699 632.28 68.0599 631.65 64.4999C631.21 62.0599 630.97 59.5899 630.52 57.1499C630.15 55.1899 628.91 53.8699 626.98 53.3399C624.98 52.7999 624.06 54.4599 622.81 55.5099C621.62 56.5099 621.59 59.2499 619.52 58.5599C618.59 58.2499 618.31 56.0299 617.68 54.7099C617.26 53.8299 616.88 52.8299 616.21 52.1699C614.33 50.3399 614.34 48.4399 615.57 46.3099C617.07 43.7299 618.18 40.7999 620.13 38.6299C621.4 37.2199 623.86 36.2699 625.82 36.2099C630.43 36.0799 635.07 36.5499 639.69 36.8899C643.81 37.1899 647.93 37.5999 652.04 38.0599C654.01 38.2799 655.96 38.6899 657.9 39.0899C660.31 39.5899 661.18 40.6699 660.58 42.9099C660.03 44.9799 659.32 47.1099 658.16 48.8699C657.37 50.0599 655.69 50.6699 654.75 51.2999H654.73Z" fill="white"/>
<path d="M175.13 437.05C176.51 437.15 177.6 437.07 176.65 438.7C173.39 444.28 170.23 449.91 166.95 455.47C166.47 456.28 165.58 456.84 164.91 457.54C162.16 460.41 159.35 463.23 156.71 466.19C154.74 468.4 153.67 468.83 151.28 467.17C146.52 463.89 141.83 460.49 137.2 457.03C133.36 454.17 129.65 451.14 125.87 448.19C125.35 447.78 124.68 447.54 124.25 447.07C123.85 446.64 123.67 446 123.39 445.45C123.86 445.32 124.32 445.12 124.8 445.07C128.08 444.73 131.35 444.35 134.63 444.11C147.66 443.17 160.44 440.81 173.05 437.44C173.84 437.23 174.66 437.13 175.15 437.04L175.13 437.05Z" fill="white"/>
<path d="M23.6599 453.46C17.0799 452.99 10.9699 452.62 4.87994 452.08C1.08994 451.74 -0.160055 449.01 1.85994 445.76C2.28994 445.06 2.90994 444.48 3.43994 443.85C6.53994 440.19 9.73994 436.61 12.6999 432.85C13.8499 431.39 14.7399 431.11 16.4299 431.9C26.7199 436.67 37.6799 439.11 48.7599 441.11C53.7799 442.02 58.7899 443 63.7999 443.98C64.2299 444.06 64.6099 444.39 65.0199 444.61C64.6399 444.91 64.2999 445.33 63.8699 445.48C55.2799 448.46 46.7699 451.68 37.5399 452.19C32.7699 452.45 28.0099 453.05 23.6699 453.46H23.6599Z" fill="white"/>
<path d="M154.24 77.8799C150.49 78.1699 145.06 78.5599 139.64 79.0099C137.84 79.1599 136.69 78.0899 136.15 76.7499C135.81 75.9099 136.08 74.3699 136.68 73.6699C138.75 71.2899 140.9 68.9199 143.39 67.0099C144.85 65.8899 146.99 65.1299 148.83 65.1199C160.08 65.0499 171.18 63.5099 182.25 61.8299C184.93 61.4199 187.11 61.7799 189.3 62.8999C192.39 64.4699 195.43 66.1699 198.4 67.9699C199.31 68.5199 200.18 69.4299 200.63 70.3899C201.3 71.7999 201.53 72.9799 199.07 73.3099C194.36 73.9499 189.76 75.3799 185.05 76.0499C175.41 77.4199 165.74 78.7899 154.24 77.8799V77.8799Z" fill="white" fill-opacity="0.5"/>
<path opacity="0.75" d="M1109.05 37.05C1113.54 37.05 1118.03 37.1 1122.52 37.04C1130.76 36.93 1137.68 40.1 1143.61 45.56C1147.34 49 1147.04 52.52 1144.81 56.8C1144.23 57.91 1143.45 58.13 1142.42 57.33C1141.11 56.31 1139.84 55.24 1138.45 54.35C1135.65 52.54 1134.11 52.75 1132.03 55.28C1130.27 57.42 1129.87 60.01 1129.72 62.71C1129.54 65.83 1129.15 68.95 1128.71 72.05C1128.55 73.17 1128.09 74.29 1127.57 75.31C1127.32 75.81 1126.61 76.07 1126.11 76.44C1125.96 75.98 1125.76 75.53 1125.66 75.06C1124.24 68.51 1124.69 61.85 1124.62 55.23C1124.6 53.43 1124.47 51.56 1123.95 49.86C1123.36 47.92 1122.16 46.24 1119.76 46.18C1117.6 46.13 1116.52 47.59 1115.63 49.27C1114.77 50.88 1114.02 52.56 1113.03 54.09C1112.27 55.26 1110.74 55.17 1110.22 53.89C1109.48 52.07 1109.03 50.12 1108.53 48.2C1106.74 41.4 1102.65 40.04 1096.87 44.34C1095.81 45.13 1094.73 45.93 1093.57 46.57C1091.76 47.57 1089.58 47.16 1088.11 45.61C1086.82 44.25 1086.79 42.83 1087.57 41.07C1088.77 38.37 1090.29 36.85 1093.56 37.02C1098.7 37.29 1103.87 37.09 1109.03 37.09V37.07L1109.05 37.05Z" fill="white"/>
<path opacity="0.75" d="M556.67 489.62C556.67 488.79 556.64 487.95 556.67 487.12C556.73 485.57 557.39 485.06 558.94 485.71C566.46 488.89 574.27 491.11 582.32 492.38C587.05 493.13 591.82 493.66 596.6 494.02C603.04 494.5 609.51 494.71 615.96 495.07C617.16 495.14 617.26 495.74 616.65 496.68C614.67 499.75 612.86 502.94 610.72 505.89C608.85 508.47 607.21 508.58 604.88 506.84C599.98 503.17 594.64 503.3 589.96 507.38C587.72 509.33 585.71 511.37 585.23 514.7C584.91 516.87 583.55 519 582.29 520.9C581.27 522.44 579.95 522.2 579.41 520.46C578.93 518.91 578.79 517.23 578.67 515.59C578.39 511.62 578.57 507.59 577.91 503.69C576.45 495.06 570.4 495.43 564.86 496.62C563.75 496.86 562.77 497.7 561.66 497.99C559.84 498.47 558.28 497.98 557.73 495.97C557.17 493.91 556.8 491.79 556.34 489.7C556.44 489.68 556.54 489.66 556.65 489.63L556.67 489.62Z" fill="white"/>
<path d="M560.87 35.0401C572.48 34.4801 583.32 37.08 593.55 42.43C595.11 43.25 595.66 43.88 594.09 45.23C590.32 48.47 586.63 51.81 582.83 55.03C580.31 57.17 577.6 59.09 575.09 61.25C572.15 63.78 571.21 63.7 568.81 60.39C566.28 56.9 563.77 53.3901 561.16 49.9701C557.85 45.6201 554.43 41.35 551.08 37.03C550.79 36.65 550.59 36.2 550.35 35.78C550.88 35.54 551.41 35.0901 551.94 35.0801C554.94 35.0101 557.94 35.05 560.88 35.05L560.87 35.0401Z" fill="white"/>
<path opacity="0.75" d="M90.56 357.18C98.51 357.49 106.54 357.24 114.4 358.26C121.89 359.23 129.32 358.94 136.77 358.9C141.86 358.87 146.95 357.92 152.04 357.44C152.79 357.37 153.56 357.61 154.33 357.71C154.13 358.48 154.1 359.35 153.71 360.01C152.1 362.79 147.17 364.45 144.18 363.32C144.02 363.26 143.88 363.17 143.73 363.11C138.24 360.95 134.66 361.87 131.94 366.87C128.87 372.49 124.81 377.72 124.34 384.54C124.22 386.28 123.22 388 122.45 389.65C120.68 393.39 119.43 393.53 117.24 389.89C116.27 388.28 115.77 386.19 115.68 384.29C115.47 379.81 115.72 375.3 115.6 370.81C115.56 369.2 115.26 367.46 114.57 366.03C112.97 362.73 109.1 361.99 106.17 364.2C105.91 364.4 105.69 364.66 105.44 364.88C104.45 365.74 103.45 366.59 102.45 367.45C102.01 366.31 101.61 365.15 101.13 364.03C99.98 361.31 97.63 359.89 94.8 360.3C92.52 360.64 90.25 361.09 87.98 361.52C84.99 362.09 84.48 361.83 83.33 359.4C82.66 357.98 82.96 357.12 84.58 357.06C86.57 356.98 88.57 357.04 90.57 357.04C90.57 357.09 90.57 357.14 90.57 357.19L90.56 357.18Z" fill="white"/>
<path d="M32.9001 332.62C39.5301 333.95 46.1401 335.38 52.8001 336.56C56.6901 337.25 60.6501 337.63 64.5901 338.01C69.0301 338.44 73.4801 338.7 77.9301 339.07C78.3301 339.1 79.0201 339.5 79.0101 339.7C78.9901 340.13 78.6801 340.63 78.3401 340.94C75.5001 343.48 72.7401 346.12 69.7301 348.45C64.8901 352.19 59.8801 355.72 54.9301 359.32C52.4601 361.12 52.1701 361.12 49.9401 358.87C48.7801 357.7 47.6801 356.44 46.7001 355.11C42.4601 349.41 38.2501 343.68 34.0701 337.94C33.2001 336.74 32.4401 335.45 31.7501 334.14C31.5001 333.65 31.5001 332.95 31.6201 332.4C31.6501 332.24 32.4901 332.26 32.9601 332.19C32.9401 332.34 32.9201 332.48 32.9001 332.63V332.62Z" fill="white"/>
<path opacity="0.75" d="M787.9 441.83C789.31 442.23 790.26 442.48 791.2 442.77C801.91 446.01 812.96 445.66 823.82 444.77C831.65 444.13 839.45 441.97 846.74 438.59C847.31 438.33 848.01 438.34 848.64 438.22C848.68 438.96 848.91 439.75 848.72 440.43C847.95 443.31 847.23 446.22 846.17 448.99C844.86 452.42 843.39 453.06 840.55 450.96C834.07 446.16 829.34 448.87 825.82 453.85C823.88 456.6 823.73 456.56 821.38 454.34C820.9 453.88 820.39 453.43 819.99 452.91C815.58 447.12 807.48 447.95 802.61 454.36C800.61 456.99 798.86 459.81 797.01 462.55C796.82 462.82 796.76 463.25 796.52 463.4C794.64 464.61 792.72 465.77 790.81 466.94C788.84 465.27 788.71 462.99 788.68 460.66C788.59 455.03 789.07 449.36 787.5 443.83C787.35 443.29 787.73 442.6 787.89 441.81L787.9 441.83Z" fill="white"/>
<path opacity="0.75" d="M938.57 172.1C938.01 171.58 937.28 171.23 937.15 170.72C936.56 168.49 936.05 166.23 935.68 163.95C935.23 161.18 935.13 158.34 934.54 155.6C933.98 153 933.12 150.32 930.14 149.44C926.88 148.48 924.27 149.82 922.15 152.23C921.06 153.47 920.23 154.94 919.13 156.17C917.04 158.51 916.5 158.42 914.61 156.01C913.59 154.71 912.5 153.45 911.35 152.26C910.43 151.32 909.37 150.52 908.37 149.65C909.75 148.84 911.07 147.88 912.52 147.24C915.56 145.91 918.64 144.69 921.76 143.55C923.46 142.93 925.24 142.24 927.01 142.12C935.59 141.55 943.6 139.11 951.25 135.28C954.47 133.67 954.63 133.79 955.85 137.09C956.31 138.34 956.75 139.59 957.12 140.87C957.97 143.86 956.79 145.66 953.75 146.07C953.42 146.11 953.08 146.07 952.75 146.09C945.45 146.49 943.09 148.47 941.83 155.7C941.26 158.95 941.17 162.27 940.74 165.55C940.5 167.34 940.06 169.12 939.62 170.87C939.52 171.26 939.05 171.56 938.58 172.09L938.57 172.1Z" fill="white"/>
<path opacity="0.75" d="M534.74 49.11C534.02 49.37 532.48 49.91 530.94 50.48C527.66 51.69 523.21 48.87 522.99 45.34C522.96 44.79 523.37 43.91 523.82 43.69C529.14 41.05 534.23 37.89 540.19 36.69C541.71 36.38 542.75 36.44 543.73 37.55C545.83 39.9 548 42.2 549.99 44.63C552.93 48.22 555.72 51.93 558.64 55.54C560.02 57.24 560.46 58.76 559.39 60.96C558.18 63.46 557.59 66.26 556.73 68.93C556.37 70.03 556.23 71.29 555.58 72.18C554.64 73.49 553.33 74.54 552.18 75.69C551.33 74.34 550.2 73.08 549.68 71.61C547.84 66.45 546.29 61.18 544.47 56.02C542.93 51.66 539.5 49.09 534.72 49.12L534.74 49.11Z" fill="white"/>
<path d="M98.2599 74.1199C96.5299 73.7999 93.7299 73.4899 91.0399 72.7499C82.8999 70.5399 74.8799 67.9599 67.2399 64.3499C64.8599 63.2299 62.6699 61.6899 60.4199 60.3099C59.9999 60.0599 59.6799 59.6399 59.3299 59.2899C56.5799 56.4899 55.8199 53.0099 57.4699 50.8099C59.0599 48.6899 62.0599 48.3799 65.6599 50.0099C73.7899 53.7099 82.0399 57.0499 90.7399 59.2599C93.7099 60.0099 96.3699 61.8599 98.1499 64.6999C99.3699 66.6499 101.02 68.3199 102.35 70.2099C102.85 70.9299 103.46 72.1099 103.19 72.6899C102.87 73.3799 101.67 73.7199 100.8 74.0699C100.37 74.2399 99.8099 74.0999 98.2699 74.0999L98.2599 74.1199Z" fill="white" fill-opacity="0.5"/>
<path d="M465.76 34.53C471.57 35.61 477.42 36.51 483.17 37.82C487.99 38.92 492.81 40.17 497.13 42.79C498.04 43.34 498.39 43.71 497.2 44.36C489.2 48.68 481.21 53.04 473.21 57.37C472.63 57.68 472 57.91 471.37 58.1C468.67 58.94 468.3 58.87 467.28 56.21C465.62 51.9 464.13 47.52 462.57 43.16C462.29 42.38 461.99 41.61 461.73 40.83C460.45 36.9967 461.793 34.9 465.76 34.54V34.53Z" fill="white"/>
<path opacity="0.75" d="M125.27 90.87C123.87 95.37 122.77 99.69 121.12 103.8C120.6 105.11 118.73 106.02 117.3 106.79C114.87 108.11 113.64 107.69 112.8 105.03C112.12 102.85 111.71 100.49 111.67 98.21C111.62 94.75 110.59 91.67 108.97 88.73C107.25 85.62 104.27 84.45 100.98 85.51C100.82 85.56 100.66 85.62 100.53 85.72C97.2899 87.94 94.8099 88.45 92.0999 84.36C90.0699 81.29 86.0899 81.29 82.5199 82.3C80.6499 82.82 78.6999 84.49 76.8899 83.11C74.9799 81.65 73.3699 79.67 72.0099 77.66C71.0499 76.24 70.7299 74.38 70.1299 72.72C71.8299 73.08 73.5899 73.27 75.2199 73.82C86.7099 77.69 98.4399 80.49 110.46 82.15C112.52 82.43 114.64 83.4 116.38 84.57C118.58 86.05 120.47 87.88 123.3 88.29C124.01 88.39 124.53 89.86 125.27 90.89V90.87Z" fill="white"/>
<path d="M299.95 159.59C298.46 158.95 297.02 158.56 295.82 157.79C289.21 153.51 283.82 147.86 278.41 142.22C278.07 141.87 277.82 141.41 277.63 140.95C277.44 140.51 277.38 140.02 277.27 139.55C277.89 139.4 278.5 139.24 279.13 139.11C279.28 139.08 279.46 139.14 279.62 139.19C289.16 142.71 299.36 143.23 309.14 145.66C312.01 146.37 315.02 146.57 317.95 147.06C318.66 147.18 319.33 147.54 320.02 147.79C319.57 148.23 319.19 148.79 318.66 149.1C313.65 152.04 308.62 154.94 303.58 157.82C302.46 158.46 301.27 158.95 299.96 159.58L299.95 159.59Z" fill="white"/>
<path d="M101.14 60.99C108.09 62.31 114.78 63.32 121.33 64.9C126.27 66.09 131.19 65.9 136.15 66.03C137.45 66.07 138.75 66.32 140.04 66.48C139.28 67.51 138.64 68.67 137.72 69.53C133.98 73.05 130.2 76.53 126.36 79.93C123.68 82.3 122.89 82.33 119.92 80.22C117.5 78.5 115.11 76.7 112.89 74.74C108.67 71.01 104.56 67.15 100.44 63.32C99.9801 62.89 99.6901 62.27 99.3301 61.74C100.01 61.46 100.69 61.17 101.14 60.99V60.99Z" fill="white"/>
<path d="M1041.68 200.03C1042.18 200.03 1042.68 200 1043.17 200.03C1045.54 200.22 1045.84 200.72 1044.66 202.65C1041.64 207.58 1038.61 212.51 1035.54 217.42C1033.77 220.25 1032.7 220.83 1029.34 219.36C1024.2 217.12 1019.24 214.46 1014.28 211.84C1012.77 211.05 1012.86 210 1014.28 209.36C1019.23 207.13 1024.12 204.72 1029.21 202.84C1033.19 201.37 1037.43 200.59 1041.56 199.5C1041.6 199.68 1041.65 199.85 1041.69 200.03H1041.68Z" fill="white"/>
<path opacity="0.75" d="M379.4 179.66C379.4 179.84 379.47 180.08 379.39 180.16C378.2 181.29 376.88 182.3 375.82 183.53C374.41 185.17 373.35 184.7 371.6 183.82C367.04 181.53 361.86 183.57 359.63 188.44C358.61 190.66 358.38 193.22 357.61 195.57C357.06 197.24 356.22 198.82 355.51 200.44C354.57 198.8 353.46 197.24 352.75 195.51C351.99 193.69 351.69 191.68 351.04 189.81C349.08 184.15 345.59 182.41 339.9 184.18C336.49 185.24 335.24 184.92 334.05 182.67C333.39 181.42 333.87 180.36 335.3 180.13C336.12 180 336.96 180.04 337.79 180.03C349.4 179.89 360.91 178.72 372.27 176.31C375.11 175.71 377.07 177 378.89 178.83C379.12 179.06 379.24 179.39 379.4 179.66V179.66Z" fill="white"/>
<path d="M406.75 316.73C409.86 317.08 412.98 317.37 416.08 317.82C416.93 317.94 417.65 318.62 416.7 319.55C411.92 324.26 408.71 330.1 405 335.58C401.92 340.14 401.22 340.07 398.65 335.01C397.75 333.23 396.93 331.4 395.93 329.67C394.01 326.36 392.12 323 388.34 321.37C387.96 321.21 387.71 320.76 387.4 320.44C387.81 320.17 388.18 319.73 388.62 319.64C394.6 318.4 400.45 316.22 406.76 316.71L406.75 316.73Z" fill="white"/>
<path d="M654.3 444.82C653.82 445.41 653.56 445.84 653.2 446.17C648.21 450.81 643.21 455.43 638.22 460.06C637.13 461.07 635.98 461.42 634.63 460.48C628.77 456.4 622.91 452.35 617.05 448.27C616.8 448.1 616.64 447.8 616.44 447.56C616.85 447.39 617.25 447.08 617.67 447.06C624.13 446.7 630.59 446.48 637.04 446C640.99 445.71 644.91 445.02 648.84 444.54C650.31 444.36 651.79 444.2 653.27 444.14C653.58 444.13 653.92 444.57 654.29 444.84L654.3 444.82Z" fill="white"/>
<path d="M1003.62 194.5C1008.58 195.22 1013.94 195.99 1019.31 196.79C1020.9 197.03 1022.47 197.33 1024.05 197.61C1022.7 198.41 1021.4 199.28 1020.01 199.99C1012.08 204.05 1004.11 208.04 996.2 212.15C994.52 213.02 993.99 212.08 993.82 210.88C993.22 206.64 992.72 202.39 992.34 198.13C992.29 197.55 992.98 196.46 993.5 196.34C996.71 195.63 999.97 195.13 1003.64 194.49L1003.62 194.5Z" fill="white"/>
<path d="M198.76 436.68C199.03 439.53 197.64 441.8 195.33 443.23C190.57 446.18 185.65 448.87 180.73 451.56C179.93 452 178.81 452.08 177.87 451.99C176.32 451.85 175.49 450.56 176.16 449.18C178.75 443.82 181.38 438.48 184.2 433.23C184.86 431.99 186.18 430.97 187.42 430.21C189.97 428.65 192.69 428.51 195.45 429.92C198.23 431.34 198.8 433.79 198.77 436.68H198.76Z" fill="white" fill-opacity="0.5"/>
<path d="M5.67992 331.07C5.70992 327.49 9.32992 324.37 12.7899 325.23C17.8899 326.48 22.4199 328.5 24.7499 333.87C25.9199 336.56 27.8799 338.92 29.5899 341.35C30.3099 342.38 31.0599 343.36 29.8599 344.35C29.0499 345.01 27.7799 345.89 26.9999 345.67C22.2299 344.34 17.3499 343.15 12.8999 341.07C8.92992 339.22 6.07992 335.84 5.66992 331.06L5.67992 331.07Z" fill="white" fill-opacity="0.5"/>
<path d="M109.52 446.06C114.95 444.38 118.64 448.86 122.86 451.88C126.35 454.38 129.64 457.17 132.97 459.88C134.13 460.82 135.17 461.9 136.22 462.97C138.59 465.4 138.55 466.59 136.1 469.06C134.58 470.59 133.08 470.44 130.85 468.73C127.44 466.13 123.96 463.63 120.54 461.04C115.67 457.34 110.83 453.61 106 449.86C105.22 449.25 104.53 448.51 103.89 447.75C103.61 447.42 103.55 446.9 103.39 446.46C103.86 446.33 104.32 446.1 104.79 446.08C106.12 446.03 107.45 446.06 109.54 446.06H109.52Z" fill="white"/>
<path d="M1137.57 373.14C1147.15 374.74 1155.75 377.7 1164.23 381.05C1165.61 381.6 1165.09 382.29 1164.45 382.8C1161.32 385.25 1158.12 387.6 1154.96 390.01C1153.52 391.12 1152.18 392.38 1150.71 393.44C1149.2 394.53 1147.91 394.17 1146.99 392.56C1143.62 386.68 1140.26 380.8 1136.9 374.91C1136.66 374.49 1136.49 374.03 1136.29 373.59C1136.89 373.39 1137.48 373.18 1137.57 373.15V373.14Z" fill="white"/>
<path opacity="0.75" d="M36.6099 466.33C36.6399 463.25 36.7599 463.22 39.6899 463.92C48.8399 466.13 57.9999 468.35 67.4299 469.11C69.5599 469.28 71.6699 469.78 73.7999 470.06C75.2699 470.25 76.0099 471.04 75.4499 472.41C75.0099 473.49 74.8499 475.25 72.8599 474.64C72.3899 474.49 71.9399 474.25 71.4999 474.02C68.0099 472.24 65.0199 473.23 62.4899 475.86C61.1199 477.28 60.0599 479 58.7699 480.5C56.6799 482.92 54.8499 482.64 53.5199 479.68C53.0499 478.64 53.0199 477.4 52.5499 476.37C51.8799 474.88 51.1199 473.39 50.1499 472.09C48.6799 470.1 46.6899 469.64 44.4099 470.78C44.1099 470.93 43.8099 471.08 43.4999 471.2C38.8899 473.01 36.5799 471.37 36.6199 466.33H36.6099Z" fill="white"/>
<path opacity="0.75" d="M641.53 506.25C641.53 504.92 641.73 503.55 641.49 502.26C640.89 499 639.47 496.28 635.93 495.28C635.14 495.06 634.34 494.79 633.65 494.36C632.66 493.75 632.84 492.62 633.98 492.13C634.74 491.8 635.54 491.54 636.34 491.32C644.51 489.17 652.68 487.05 660.84 484.89C663.44 484.2 663.68 484.33 663.75 486.97C663.77 487.8 663.8 488.65 663.66 489.46C663.01 493.36 661.68 493.97 658.14 492.07C655.46 490.63 654.14 490.81 652.08 493.22C649.64 496.07 648.74 499.63 647.64 503.13C646.81 505.78 645.47 508.27 644.24 510.77C644.01 511.24 643.16 511.72 642.68 511.65C642.27 511.59 641.76 510.76 641.7 510.22C641.56 508.9 641.65 507.56 641.65 506.23C641.6 506.23 641.55 506.23 641.51 506.23L641.53 506.25Z" fill="white"/>
<path opacity="0.75" d="M296 190.16C293.95 190.22 293 188.86 292.13 187.13C290.58 184.01 289.06 180.97 286.58 178.33C283.36 174.91 279.94 174.09 275.89 176.11C274.01 177.05 272.83 176.89 271.94 174.97C271.53 174.08 270.88 173.26 270.62 172.33C270.24 170.94 270.12 169.47 269.89 168.04C271.22 168.4 272.62 168.6 273.88 169.14C281.66 172.53 289.73 175.09 298.01 176.85C300.8 177.44 303.35 179.91 306.55 178.3C306.66 178.24 307.4 178.92 307.4 179.25C307.4 182.97 300.03 190.04 296.01 190.16H296Z" fill="white"/>
<path d="M212.67 69.35C211.09 68.92 209.41 68.69 207.93 68.01C203.42 65.94 198.99 63.7 194.54 61.5C194.11 61.29 193.75 60.94 193.36 60.65C193.85 60.28 194.29 59.71 194.84 59.57C196.43 59.15 198.11 59.03 199.68 58.55C206.95 56.31 214.19 53.98 221.45 51.73C222 51.56 222.64 51.69 223.24 51.68C223.16 52.29 223.22 52.95 222.99 53.5C221.21 57.78 219.42 62.06 217.52 66.29C216.63 68.29 215.02 69.35 212.67 69.35V69.35Z" fill="white"/>
<path d="M1065.28 449.63C1064.94 449.42 1064.46 449.25 1064.15 448.91C1063.83 448.56 1063.59 448.07 1063.45 447.61C1061.62 441.62 1059.77 435.63 1058.03 429.61C1057.74 428.6 1058.44 428.01 1059.47 428.59C1066.45 432.47 1074 434.84 1081.65 436.91C1082.75 437.21 1083.86 437.75 1082.48 438.69C1077.17 442.32 1071.72 445.75 1066.31 449.24C1066.04 449.41 1065.69 449.48 1065.27 449.63H1065.28Z" fill="white"/>
<path d="M886.66 135.06C886.66 131.55 887.24 130.97 888.87 132.21C894.94 136.85 901.88 139.39 909.2 141.12C909.48 141.19 909.73 141.41 909.99 141.56C909.77 141.79 909.58 142.09 909.31 142.23C906.63 143.54 903.96 144.89 901.23 146.11C898.21 147.46 895.12 148.67 892.08 149.99C889.25 151.22 889.08 151.28 888.58 148.41C887.76 143.7 887.21 138.94 886.66 135.07V135.06Z" fill="white"/>
<path opacity="0.75" d="M200.97 78.9399C201.37 79.1999 201.74 79.4399 202.11 79.6799C201.81 80.0499 201.56 80.6699 201.21 80.7399C199.92 80.9799 198.61 81.0999 197.3 81.1399C190.88 81.3299 188.05 83.5099 186.65 89.9099C185.77 93.9199 185.38 98.0299 184.65 102.07C184.53 102.72 183.82 103.25 183.38 103.84C182.92 103.39 182.18 103.01 182.06 102.49C181.76 101.22 181.81 99.8699 181.6 98.5799C181.2 96.1499 180.97 93.6399 180.21 91.3199C178.81 87.0799 176.59 86.4499 172.28 88.8299C170.79 89.6499 169.64 89.9099 168.43 88.3599C166.12 85.3599 166.43 84.3299 170.16 83.4199C170.96 83.2299 171.79 83.1099 172.61 83.0899C181.22 82.8599 189.6 81.0899 198 79.4599C198.97 79.2699 199.94 79.1199 200.97 78.9499V78.9399Z" fill="white"/>
<path d="M449.63 35.0799C453.18 35.0199 453.52 35.2199 454.63 38.2399C455.37 40.2599 455.98 42.3199 456.69 44.3499C457.24 45.9099 457.35 47.1299 455.37 47.8299C452.26 48.9299 449.17 50.1399 446.15 51.4499C444.45 52.1899 443.55 51.5299 443.19 50.0399C442.27 46.1999 441.41 42.3399 440.75 38.4499C440.64 37.7899 441.49 36.4199 442.1 36.2799C444.65 35.6799 447.29 35.4199 449.63 35.0799V35.0799Z" fill="white"/>
<path d="M403.56 162.35C402.81 161.86 401.62 161.45 401.11 160.62C400.73 160 400.93 158.6 401.42 157.97C403.31 155.5 405.29 153.06 407.5 150.88C408.74 149.65 410.32 148.88 412.44 149.73C413.66 150.22 415.3 149.65 416.75 149.51C417.89 149.41 419.04 149.03 420.14 149.14C422.57 149.39 423.36 151.45 421.86 153.42C421.36 154.07 420.77 154.69 420.12 155.18C415.31 158.85 409.54 160.29 403.55 162.35H403.56Z" fill="white" fill-opacity="0.5"/>
<path opacity="0.75" d="M139.51 473.94C139.42 474.36 139.43 474.54 139.35 474.67C138.2 476.69 137.13 478.76 135.87 480.7C134.18 483.31 132.78 483.38 130.29 481.27C128.39 479.67 126.56 477.95 124.48 476.61C121.1 474.43 117.65 473.63 113.9 476.27C110.81 478.44 107.61 477.22 106.17 473.66C106.03 473.31 106.59 472.65 106.87 472.16C106.92 472.07 107.18 472.08 107.35 472.07C112.3 471.72 117.26 471.41 122.21 471.02C124.52 470.84 126.42 471.65 128.18 473.05C131.44 475.663 134.86 475.963 138.44 473.95C138.71 473.8 139.13 473.93 139.53 473.93L139.51 473.94Z" fill="white"/>
<path d="M418.38 146.12C418.97 146.12 418.64 146.14 418.3 146.12C410.08 145.5 410.02 145.39 413.65 138.14C415.07 135.31 416.4 132.45 417.9 129.66C418.68 128.21 419.82 128.18 420.44 129.65C421.98 133.31 423.64 136.98 424.62 140.8C425.65 144.83 423.98 146.24 418.38 146.12V146.12Z" fill="white"/>
<path d="M235.76 54.68C235.05 59.68 232.12 62.95 227.66 65.03C227.37 65.17 227 65.14 226.7 65.26C225.17 65.85 223.59 66.78 222.23 65.03C221.07 63.54 222.01 62.15 222.75 60.91C224.59 57.81 226.42 54.68 228.55 51.78C229.4 50.62 230.45 48.5 232.42 49.57C234.26 50.58 235.97 52.09 235.77 54.68H235.76Z" fill="white" fill-opacity="0.5"/>
<path opacity="0.75" d="M401.69 169.41C401.83 169.78 402.36 170.43 402.22 170.9C401.35 173.98 400.04 176.78 397.08 178.5C394.93 179.75 392.92 181.25 390.72 182.4C389.78 182.89 388.53 182.86 387.42 182.88C387.07 182.88 386.54 182.35 386.4 181.95C386.32 181.71 386.76 181.06 387.09 180.94C390.68 179.64 392.45 176.4 394.24 173.54C395.99 170.74 398.37 169.93 401.69 169.41V169.41Z" fill="white"/>
<path d="M10.7001 430.59C10.5501 430.93 10.3801 431.81 9.86006 432.37C8.30006 434.08 6.75006 435.87 4.90006 437.23C4.04006 437.86 2.24006 438.07 1.33006 437.59C0.0500592 436.91 -0.279941 435.48 0.200059 433.73C1.07006 430.58 3.17006 428.63 5.72006 427.05C8.11006 425.58 10.7201 427.26 10.6901 430.59H10.7001Z" fill="white" fill-opacity="0.5"/>
<path opacity="0.75" d="M1099.1 439.09C1100.6 439.09 1102.13 438.92 1103.59 439.16C1104.43 439.3 1105.29 439.97 1105.91 440.62C1106.28 441 1106.2 441.81 1106.32 442.43C1105.72 442.47 1105.13 442.5 1104.53 442.53C1103.26 442.6 1101.13 442.23 1100.84 442.8C1098.68 447.07 1094.72 444.5 1091.74 445.43C1091.51 445.5 1090.86 445.01 1090.79 444.7C1090.2 442 1092.43 439.08 1095.11 439.02C1096.44 438.99 1097.78 439.02 1099.11 439.02V439.09H1099.1Z" fill="white"/>
<path opacity="0.75" d="M602.7 49.76C602.71 53.75 599.21 56.58 595.83 55.94C594.91 55.77 594.09 55.08 593.23 54.63C593.68 53.97 594.06 53.24 594.6 52.67C595.85 51.34 597.09 50 598.5 48.85C599.29 48.2 600.61 47.39 601.31 47.66C602.11 47.96 602.47 49.39 602.69 49.76H602.7Z" fill="white"/>
<path opacity="0.75" d="M1135.14 383.23C1135.29 384.47 1133.27 385.68 1132.1 384.96C1130.08 383.72 1128.26 382.15 1126.4 380.67C1126.25 380.55 1126.31 380.07 1126.4 379.79C1127.08 377.68 1127.79 375.57 1128.49 373.46C1129.65 375.14 1130.81 376.82 1131.95 378.5C1133.06 380.13 1134.16 381.76 1135.15 383.23H1135.14Z" fill="white"/>
</g>
<defs>
<clipPath id="clip0_48_23">
<rect width="1195.87" height="553.14" fill="white"/>
</clipPath>
</defs>
</svg>
