<svg width="40" height="40" viewBox="0 0 40 40" fill="none" xmlns="http://www.w3.org/2000/svg">
<g clip-path="url(#clip0_47_11)">
<path d="M1.23778 31.9054C1.06507 30.5327 1.77991 29.2811 2.94812 28.1334C3.18561 27.8997 3.38231 27.6383 3.89085 27.7405C4.3994 27.8443 4.74962 28.0694 4.81679 28.4467C4.87676 28.7878 4.82159 29.1392 4.86956 29.4819C4.92474 29.8783 4.96552 30.2886 5.14063 30.6625C5.63958 31.7289 6.94453 32.1357 8.3934 31.7185C9.89025 31.2874 9.86387 31.2892 9.91184 32.4438C9.94543 33.2453 9.9958 34.052 10.1757 34.8396C10.2597 35.2049 10.5763 35.5995 10.9505 35.8592C11.6006 36.311 12.4618 36.2885 13.1622 35.9371C13.9058 35.5632 14.6159 35.1166 14.9037 34.4432C15.1484 33.8667 15.3715 33.2868 15.6258 32.7121C15.7721 32.3832 15.9592 32.359 16.2807 32.5927C16.3646 32.6533 16.4414 32.7208 16.5133 32.79C17.696 33.8858 19.7901 33.9031 20.9583 32.7658C21.594 32.1495 22.0522 31.438 22.5871 30.7681C22.7262 30.595 22.8534 30.4184 22.9877 30.2436C23.2876 29.8506 23.3211 29.8385 23.6138 30.2367C23.8585 30.5708 24.2039 30.7525 24.698 30.8512C25.2738 30.9655 25.4849 31.2667 25.516 31.696C25.5544 32.2361 25.6072 32.7865 25.7967 33.3059C26.063 34.0416 27.0992 34.4138 28.1067 33.7075C28.8096 33.2159 29.3085 32.6481 29.5484 31.9556C29.6828 31.5679 29.8627 31.1853 30.0594 30.8114C30.1865 30.5708 30.412 30.5136 30.8174 30.5742C32.2111 30.7854 32.7172 30.5829 33.2402 29.6602C33.5088 29.1842 33.8111 28.7012 33.4777 28.1646C33.3217 27.9136 33.4657 27.7145 33.7823 27.5847C34.4036 27.3285 35.0225 27.0671 35.6558 26.8265C36.2339 26.6066 36.385 26.5979 36.6825 27.0688C37.1718 27.8461 37.6108 28.6527 37.9034 29.4785C38.1361 30.1363 38.1337 30.8408 38.2081 31.5246C38.4024 33.3474 37.4189 34.8881 36.0012 36.3301C35.4159 36.9256 32.1583 40.1904 21.2054 39.9878C5.29175 40.0173 3.24798 36.9256 1.64797 34.187C1.22579 33.4669 1.23298 32.7329 1.24258 31.902L1.23778 31.9054ZM32.6477 36.3699C33.4777 36.363 34.3892 35.764 34.6627 35.0785C34.8066 34.7184 34.6411 34.4692 34.1757 34.3463C33.4777 34.1628 31.988 34.502 31.6762 35.0023C31.501 35.281 31.5034 35.6757 31.6234 35.9787C31.7505 36.3006 32.2207 36.408 32.6501 36.3699H32.6477ZM4.85997 35.0456C4.84798 35.7432 5.35652 36.1812 6.2081 36.2072C6.93973 36.2279 7.47706 35.8834 7.45067 35.4074C7.42429 34.8794 6.54872 34.2026 5.87226 34.1853C5.27256 34.1697 4.86956 34.5124 4.85997 35.0473V35.0456ZM4.08995 32.4126C3.62938 32.4282 3.1976 32.7277 3.25037 32.9977C3.31754 33.3422 3.9964 33.7698 4.41379 33.7317C4.71844 33.704 5.07346 33.3647 5.07826 33.0999C5.08306 32.7208 4.61529 32.3953 4.08995 32.4126Z" fill="current"/>
<path opacity="0.5" d="M18.3028 28.6078C14.5007 28.4624 10.8234 28.0798 7.35469 26.9875C6.26324 26.6448 5.20057 26.2483 4.16429 25.8277C3.26713 25.4659 2.66024 24.8929 2.28842 24.2005C1.31691 22.3811 1.61916 20.5947 2.61226 18.8428C2.96249 18.2248 3.57418 18.1019 4.3298 18.4464C7.02605 19.6772 10.0006 20.3592 13.1022 20.7955C13.9562 20.9149 14.8222 20.9963 15.6641 21.1503C16.1919 21.2473 16.7292 21.3944 17.1802 21.6108C19.4015 22.6702 21.5892 23.766 23.8009 24.8358C25.3121 25.5663 25.6815 25.7377 27.4422 24.6281C29.2126 23.5132 30.8653 22.3015 32.5613 21.1261C33.1106 20.7453 33.6983 20.4337 34.4228 20.2242C35.0776 20.0338 35.6006 20.1255 36.0899 20.4094C36.9607 20.9132 37.4045 21.6056 37.7331 22.3638C38.4863 24.1001 36.9343 25.0591 35.3703 25.9627C34.3484 26.553 33.1562 26.9737 31.7937 27.0654C31.4099 27.0914 31.0332 27.2299 30.6686 27.3407C29.3421 27.7457 27.9796 28.0279 26.5331 28.0868C26.0222 28.1075 25.4992 28.156 25.0147 28.2651C23.9568 28.4987 22.8797 28.388 21.8099 28.4295C20.6225 28.4762 19.435 28.5507 18.3052 28.6095L18.3028 28.6078Z" fill="current"/>
<path opacity="0.75" d="M6.52472 29.0284C6.52472 28.8848 6.51752 28.7393 6.52472 28.5957C6.53911 28.3274 6.69743 28.2391 7.06924 28.3516C8.87314 28.9021 10.7466 29.2864 12.6776 29.5062C13.8123 29.636 14.9565 29.7278 16.1031 29.7901C17.648 29.8732 19.2 29.9096 20.7472 29.9719C21.0351 29.984 21.059 30.0879 20.9127 30.2506C20.4378 30.782 20.0036 31.3342 19.4902 31.8449C19.0417 32.2915 18.6483 32.3106 18.0893 32.0094C16.9139 31.374 15.633 31.3966 14.5103 32.1028C13.973 32.4404 13.4908 32.7935 13.3757 33.37C13.2989 33.7456 12.9727 34.1143 12.6704 34.4432C12.4258 34.7098 12.1091 34.6683 11.9796 34.3671C11.8644 34.0988 11.8309 33.8079 11.8021 33.524C11.7349 32.8368 11.7781 32.1392 11.6198 31.4641C11.2695 29.9701 9.81827 30.0342 8.48933 30.2402C8.22307 30.2817 7.98798 30.4271 7.72172 30.4773C7.28514 30.5604 6.91092 30.4756 6.77899 30.1277C6.64466 29.7711 6.5559 29.4041 6.44556 29.0423C6.46954 29.0388 6.49353 29.0354 6.51992 29.0302L6.52472 29.0284Z" fill="current"/>
<path d="M29.9442 21.2714C29.829 21.3736 29.7667 21.448 29.6803 21.5051C28.4833 22.3083 27.2839 23.1081 26.0869 23.9096C25.8254 24.0844 25.5496 24.145 25.2257 23.9823C23.82 23.276 22.4143 22.5749 21.0086 21.8687C20.9487 21.8392 20.9103 21.7873 20.8623 21.7457C20.9607 21.7163 21.0566 21.6627 21.1574 21.6592C22.707 21.5969 24.2566 21.5588 25.8038 21.4757C26.7514 21.4255 27.6917 21.3061 28.6344 21.223C28.987 21.1918 29.3421 21.1641 29.6971 21.1537C29.7715 21.152 29.853 21.2282 29.9418 21.2749L29.9442 21.2714Z" fill="current"/>
<path opacity="0.75" d="M26.881 31.9054C26.881 31.6752 26.9289 31.438 26.8714 31.2147C26.7274 30.6504 26.3868 30.1795 25.5376 30.0064C25.3481 29.9683 25.1562 29.9216 24.9907 29.8472C24.7532 29.7416 24.7964 29.546 25.0699 29.4611C25.2522 29.404 25.4441 29.359 25.636 29.3209C27.5958 28.9487 29.5556 28.5818 31.513 28.2078C32.1367 28.0884 32.1943 28.1109 32.2111 28.5679C32.2159 28.7116 32.2231 28.8587 32.1895 28.9989C32.0336 29.6741 31.7145 29.7797 30.8654 29.4508C30.2225 29.2015 29.9058 29.2326 29.4117 29.6498C28.8264 30.1432 28.6105 30.7595 28.3466 31.3653C28.1475 31.8241 27.8261 32.2551 27.531 32.6879C27.4759 32.7692 27.272 32.8523 27.1568 32.8402C27.0585 32.8298 26.9361 32.6861 26.9217 32.5927C26.8881 32.3642 26.9097 32.1322 26.9097 31.902C26.8977 31.902 26.8857 31.902 26.8762 31.902L26.881 31.9054Z" fill="current"/>
<path d="M16.8009 0.0330023C3.31001 0.538477 0.253941 7.23948 0.0572389 8.86496C-0.177844 10.8193 0.306714 12.7028 1.3454 14.5083C1.63085 15.0034 1.84435 15.5279 2.47523 15.9035C4.43265 17.0651 6.58198 17.9618 8.96639 18.5884C13.0899 19.6738 17.3574 20.0927 21.7352 20.2191C23.7886 20.072 25.8444 19.9317 27.8953 19.7742C30.6396 19.5613 33.2662 18.9883 35.8593 18.3409C36.5838 18.1608 37.2219 17.8631 37.7184 17.4269C38.5292 16.7119 39.4264 15.9883 39.6686 15.0726C41.9883 6.26488 31.8438 -0.531329 16.8009 0.0330023ZM2.95019 9.89495C2.95019 9.58855 3.3268 9.26311 3.71301 9.23368C4.09442 9.20425 4.57178 9.5245 4.57658 9.81186C4.58138 10.1027 4.09682 10.5095 3.71781 10.5337C3.35799 10.5562 2.94779 10.2152 2.95019 9.89495ZM5.7304 14.5637C4.87883 14.5844 4.14719 14.0565 4.15199 13.4263C4.15679 12.8101 4.74689 12.3219 5.47133 12.3306C6.24854 12.3392 6.76189 12.8603 6.75469 13.6306C6.74989 14.2538 6.42845 14.5464 5.728 14.5637H5.7304ZM23.328 7.13734C24.5466 7.07502 25.5709 7.37277 26.3865 8.04097C26.6839 8.28505 26.7415 8.54817 26.5448 8.83034C26.3385 9.12635 25.782 9.34447 25.3598 9.23195C24.6258 9.03634 23.8917 8.82168 23.2249 8.53259C22.901 8.39237 22.7283 8.06866 22.6132 7.95441C22.5892 7.35719 22.7811 7.16331 23.3256 7.13561L23.328 7.13734ZM19.7226 4.7121C19.9553 4.69133 20.1976 4.70864 20.4351 4.70864C20.447 4.68094 20.4614 4.65498 20.4734 4.62728C20.946 4.74846 21.4641 4.8177 21.8791 5.00466C22.5316 5.29894 22.5124 5.79749 21.9103 6.13851C21.1643 6.56089 19.5667 6.36701 19.0437 5.79057C18.6264 5.33183 18.967 4.78135 19.7226 4.7121V4.7121ZM22.5052 11.4252C21.7184 11.5776 20.8572 11.6312 20.044 11.5914C18.7751 11.5291 17.5469 11.2729 16.453 10.7743C16.1244 10.6237 15.791 10.442 15.5607 10.2204C14.9754 9.64914 14.9538 8.99306 16.074 8.59837C16.8417 8.32832 17.6093 8.35602 18.6479 8.33525C19.7322 8.27985 21.0036 8.48066 22.203 8.89092C22.5892 9.02249 22.973 9.20944 23.2536 9.43621C24.0932 10.1183 23.719 11.1881 22.5076 11.4235L22.5052 11.4252ZM26.4536 13.2532C25.8659 13.4488 25.1391 13.3554 24.6857 13.0455C24.3691 12.8274 24.1916 12.5781 24.3523 12.2752C24.5058 11.9878 24.8153 11.813 25.271 11.8113C25.391 11.8113 25.5109 11.8113 25.9115 11.8113C26.0243 11.8493 26.4177 11.922 26.7007 12.0934C27.3412 12.4794 27.2069 13.0022 26.4512 13.2532H26.4536Z" fill="current"/>
</g>
<defs>
<clipPath id="clip0_47_11">
<rect width="40" height="40" fill="current"/>
</clipPath>
</defs>
</svg>
